<?xml version="1.0" encoding="utf-8"?>
<!-- Generator: Adobe Illustrator 25.0.0, SVG Export Plug-In . SVG Version: 6.00 Build 0)  -->
<svg version="1.1" height="300" id="Layer_1" xmlns="http://www.w3.org/2000/svg" xmlns:xlink="http://www.w3.org/1999/xlink" x="0px" y="0px"
	 viewBox="0 0 278 254" style="enable-background:new 0 0 278 254;" xml:space="preserve">
<style type="text/css">
	.st0{opacity:0.46;}
	.st1{fill:#BDD9FF;}
	.st2{opacity:0.43;fill:none;stroke:#708CF5;stroke-width:1.1549;stroke-linecap:round;stroke-miterlimit:10;}
	.st3{opacity:0.51;}
	.st4{opacity:0.31;fill:#BDD9FF;}
	.st5{fill:#4268FF;}
	.st6{fill:#090909;}
	.st7{fill:#FFFFFF;}
	.st8{fill:#FF9C9C;}
	.st9{fill:#FF6969;}
	.st10{fill:none;stroke:#FF6969;stroke-width:2.8872;stroke-linecap:round;stroke-linejoin:round;stroke-miterlimit:10;}
	.st11{fill:#08072B;}
	.st12{fill:#161333;}
	.st13{opacity:0.18;}
	.st14{opacity:0.19;fill:#FFFFFF;}
	.st15{fill:#5353B8;}
	.st16{opacity:0.36;fill:#FF6969;}
	.st17{opacity:0.6;fill:#FF6969;}
	.st18{opacity:0.99;}
	.st19{opacity:0.75;fill:#4268FF;}
	.st20{opacity:0.19;}
	.st21{opacity:0.99;fill:#957AF6;}
	.st22{fill:#957AF6;}
	.st23{opacity:0.46;fill:#5353B8;}
	.st24{clip-path:url(#SVGID_1_);}
	.st25{opacity:0.25;fill:#FFFFFF;}
	.st26{opacity:0.43;}
	.st27{clip-path:url(#SVGID_2_);}
	.st28{clip-path:url(#SVGID_3_);}
	.st29{clip-path:url(#SVGID_4_);}
	.st30{opacity:0.16;fill:#FFFFFF;}
	.st31{opacity:0.31;fill:#FFFFFF;}
	.st32{opacity:0.27;fill:#FFFFFF;}
	.st33{opacity:0.27;}
	.st34{opacity:0.46;fill:#FFFFFF;}
</style>
<g>
	<g>
		<g>
			<g class="st0">
				<g>
					<g>
						<g>
							<path class="st1" d="M274.1,175.5c1.4-7.5,1.1-15.4-0.1-22.9c-2.5-14.6-8.4-28.7-18.1-39.9c-10.4-11.8-22.6-18.6-28.5-34
								c-3.4-9-5.5-18.5-9.7-27.2C210.4,37,197.2,25.7,182,20.1c-15.2-5.6-32.3-5.8-47.9-1.2c-24.3,7.1-42.6,26-42.2,51.8
								c0.2,9-0.7,19.5-8.2,24.6c-4.6,3.2-10.6,3.3-16.2,4c-55.3,6.7-92.4,79.6-47.2,120.9c17.5,16,42.4,22.4,66,19.9
								c21.9-2.3,39.9-15.1,59.2-24.5c22.7-11.1,42.5-10.8,67.1-8.2c18.5,2,39.7,1.3,52.3-12.5C269.9,189.5,272.8,182.7,274.1,175.5
								z"/>
						</g>
					</g>
				</g>
			</g>
			<g class="st0">
				<g>
					<g>
						<g>
							<path class="st1" d="M239.1,165.8c1-5.5,0.8-11.4-0.1-16.9c-1.8-10.7-6.2-21.2-13.4-29.4c-7.7-8.7-16.7-13.7-21-25.1
								c-2.5-6.6-4.1-13.6-7.2-20c-5.3-10.7-15-19.1-26.2-23.2C160,47,147.5,47,136,50.3c-17.9,5.3-31.4,19.2-31.1,38.2
								c0.1,6.7-0.5,14.4-6,18.2c-3.4,2.3-7.8,2.5-11.9,3c-40.7,5-68.1,58.7-34.8,89.1c12.9,11.8,31.3,16.5,48.6,14.6
								c16.1-1.7,29.4-11.1,43.6-18.1c16.7-8.2,31.3-8,49.5-6.1c13.6,1.4,29.3,0.9,38.5-9.2C236.1,176,238.2,171.1,239.1,165.8z"/>
						</g>
					</g>
				</g>
			</g>
		</g>
		<g>
			<path class="st2" d="M166.3,121.2c-58.1,23.2-27.2-51.5-97.2-19.3c-35.1,16.1-49.3-22.2-24.5-52"/>
			<path class="st2" d="M256.6,160.6c-25.2,57.2-55.4-17.7-83,54.2c-13.8,36-50.7,18.6-53.9-20"/>
		</g>
		<g class="st3">
			<g>
				<ellipse transform="matrix(0.7071 -0.7071 0.7071 0.7071 -29.1035 19.4778)" class="st4" cx="9" cy="44.9" rx="8.8" ry="8.8"/>
				<path class="st1" d="M86.5,34.9c0,3.9-3.2,7.1-7.1,7.1c-3.9,0-7.1-3.2-7.1-7.1c0-3.9,3.2-7.1,7.1-7.1
					C83.3,27.8,86.5,30.9,86.5,34.9z"/>
				
					<ellipse transform="matrix(0.1602 -0.9871 0.9871 0.1602 183.1878 259.7936)" class="st4" cx="244.3" cy="22.2" rx="8.8" ry="8.8"/>
				<path class="st1" d="M277.7,66.4c0,3.3-2.7,6-6,6c-3.3,0-6-2.7-6-6c0-3.3,2.7-6,6-6C275,60.4,277.7,63.1,277.7,66.4z"/>
				
					<ellipse transform="matrix(0.2298 -0.9732 0.9732 0.2298 -118.8397 338.7658)" class="st1" cx="154.6" cy="244.5" rx="6" ry="6"/>
			</g>
		</g>
	</g>
	<g>
		<g>
			<g>
				<g>
					<path class="st5" d="M189,231.9l-0.9,2.1l-5.5,12.3c-0.4,0.8,0.5,1.6,1.3,1.3l20.4-9.3c0.5-0.2,0.8-0.9,0.5-1.4l-4.2-9.6
						L189,231.9z"/>
					<path class="st6" d="M182.5,246.3l0.2-0.4c0.2,0.1,0.5,0.1,0.7,0l20.4-9.3c0.3-0.1,0.4-0.3,0.5-0.5l0.4,0.9
						c0.3,0.5,0,1.2-0.5,1.4l-20.4,9.3C183,248,182.2,247.1,182.5,246.3z"/>
					<path class="st7" d="M185.5,245.2c-0.1,0-0.2-0.1-0.3-0.2c-0.1-0.1,0-0.3,0.1-0.4l19-8.5c0.1-0.1,0.3,0,0.4,0.1
						c0.1,0.1,0,0.3-0.1,0.4l-19,8.5C185.5,245.2,185.5,245.2,185.5,245.2z"/>
					<path class="st7" d="M198.1,235.7c-0.1,0-0.3,0-0.4,0c-0.6-0.1-1-0.4-1.4-0.9l0,0c-0.7-1-0.4-2.3,0.6-3c1-0.7,2.3-0.4,3,0.6
						c0.3,0.5,0.4,1,0.3,1.6c-0.1,0.6-0.4,1-0.9,1.4C198.9,235.6,198.5,235.7,198.1,235.7z M198.1,232c-0.3,0-0.6,0.1-0.9,0.3
						c-0.3,0.2-0.6,0.6-0.7,1c-0.1,0.4,0,0.8,0.2,1.2v0c0.2,0.3,0.6,0.6,1,0.7c0.4,0.1,0.8,0,1.2-0.2c0.3-0.2,0.6-0.6,0.7-1
						c0.1-0.4,0-0.8-0.2-1.2C199.1,232.3,198.6,232,198.1,232z"/>
					<path class="st7" d="M190.6,235.5c0,0-0.1,0-0.1,0l-2.5-1.1c-0.1-0.1-0.2-0.2-0.1-0.4c0.1-0.1,0.2-0.2,0.4-0.1l2.5,1.1
						c0.1,0.1,0.2,0.2,0.1,0.4C190.8,235.4,190.7,235.5,190.6,235.5z"/>
					<path class="st7" d="M189.8,237.4c0,0-0.1,0-0.1,0l-2.5-1.1c-0.1-0.1-0.2-0.2-0.1-0.4c0.1-0.1,0.2-0.2,0.4-0.1l2.5,1.1
						c0.1,0.1,0.2,0.2,0.1,0.4C190,237.3,189.9,237.4,189.8,237.4z"/>
					<path class="st7" d="M189,239.3c0,0-0.1,0-0.1,0l-2.5-1.1c-0.1-0.1-0.2-0.2-0.1-0.4c0.1-0.1,0.2-0.2,0.4-0.1l2.5,1.1
						c0.1,0.1,0.2,0.2,0.1,0.4C189.2,239.2,189.1,239.3,189,239.3z"/>
				</g>
				<path class="st6" d="M224.8,208l-21.6-27.1l5.4-13c1.7-4.1,2.2-8.7,1.5-13.1l-1.3-7.7l-18.3,0.9l-0.5,1.8l-9.7-2l-14.4,26.6
					c-2.5,4.7-2.7,10.3-0.4,15.1l20.3,43c0.2,0.5,0.9,0.8,1.4,0.5l14.3-6c0.7-0.3,1-1,0.7-1.7L190,196.5l22,25.4
					c0.5,0.5,1.3,0.5,1.7,0l11-12.3C225.1,209.1,225.1,208.5,224.8,208z"/>
				<g>
					<path class="st5" d="M215.3,220.2l0.1,2.3l0.6,13.5c0,0.9,1.2,1.3,1.7,0.6l14-17.5c0.4-0.5,0.3-1.1-0.2-1.5l-8.1-6.6
						L215.3,220.2z"/>
					<path class="st6" d="M230.4,218c0.4-0.5,0.3-1.1-0.2-1.5l-6.8-5.5l0,0l8.1,6.6c0.5,0.4,0.6,1,0.2,1.5l-14,17.5
						c-0.6,0.7-1.7,0.3-1.7-0.6l0-0.2c0.1-0.1,0.3-0.1,0.4-0.3L230.4,218z"/>
					<path class="st7" d="M218,233.7c-0.1,0-0.1,0-0.2-0.1c-0.1-0.1-0.1-0.3,0-0.4l13.1-16.2c0.1-0.1,0.3-0.1,0.4,0
						c0.1,0.1,0.1,0.3,0,0.4l-13.1,16.2C218.2,233.7,218.1,233.7,218,233.7z"/>
					<path class="st7" d="M224.2,219.8c-0.4,0-0.7-0.1-1-0.3c-0.5-0.3-0.9-0.7-1-1.3c-0.2-0.5-0.1-1.1,0.2-1.6
						c0.6-1,1.9-1.4,2.9-0.9c1,0.6,1.4,1.9,0.9,2.9c-0.3,0.5-0.7,0.9-1.3,1C224.6,219.8,224.4,219.8,224.2,219.8z M224.2,216.1
						c-0.1,0-0.3,0-0.4,0.1c-0.4,0.1-0.7,0.4-0.9,0.7c-0.2,0.4-0.2,0.8-0.1,1.2s0.4,0.7,0.7,0.9c0.8,0.4,1.7,0.1,2.1-0.6
						c0.4-0.8,0.1-1.7-0.6-2.1C224.7,216.2,224.4,216.1,224.2,216.1z"/>
					<path class="st7" d="M215.4,222.9c-0.2,0-0.3-0.1-0.3-0.3c0-0.2,0.1-0.3,0.3-0.3l2.8-0.2c0.2,0,0.3,0.1,0.3,0.3
						c0,0.2-0.1,0.3-0.3,0.3L215.4,222.9C215.4,222.9,215.4,222.9,215.4,222.9z"/>
					<path class="st7" d="M215.6,225c-0.2,0-0.3-0.1-0.3-0.3c0-0.2,0.1-0.3,0.3-0.3l2.8-0.2c0.2,0,0.3,0.1,0.3,0.3
						c0,0.2-0.1,0.3-0.3,0.3L215.6,225C215.6,225,215.6,225,215.6,225z"/>
					<path class="st7" d="M215.8,227c-0.2,0-0.3-0.1-0.3-0.3c0-0.2,0.1-0.3,0.3-0.3l2.8-0.2c0.2,0,0.3,0.1,0.3,0.3
						c0,0.2-0.1,0.3-0.3,0.3L215.8,227C215.8,227,215.8,227,215.8,227z"/>
					<path class="st7" d="M216.1,221.2c-0.9,0-2.9-1.9-3-2c-0.4-0.5-0.4-1.3,0.2-1.8c0.5-0.4,1.3-0.4,1.8,0.2
						c0.3,0.4,1.6,2.8,1.5,3.4l0,0.1l-0.2,0.1C216.2,221.2,216.2,221.2,216.1,221.2z M214.1,217.7c-0.2,0-0.3,0.1-0.4,0.2
						c-0.3,0.2-0.3,0.7-0.1,0.9c0.4,0.4,1.7,1.5,2.3,1.8c-0.2-0.7-1-2.3-1.3-2.6C214.4,217.8,214.3,217.7,214.1,217.7z"/>
					<path class="st7" d="M213.2,223.2c-0.2,0-0.4,0-0.5-0.1c-0.3-0.1-0.5-0.4-0.6-0.7c-0.1-0.3-0.1-0.7,0-1
						c0.1-0.3,0.4-0.5,0.7-0.6h0c0.4-0.1,2.6-0.6,3.3-0.3c0.2,0.1,0.3,0.2,0.3,0.3c0.2,0.6-2.6,2.3-2.8,2.3
						C213.5,223.2,213.4,223.2,213.2,223.2z M213,221.3c-0.3,0.1-0.5,0.5-0.4,0.9c0.1,0.2,0.2,0.3,0.3,0.4c0.2,0.1,0.3,0.1,0.5,0
						c0.4-0.1,1.9-1.2,2.3-1.6C215.3,220.9,213.5,221.2,213,221.3L213,221.3z"/>
				</g>
				<path class="st7" d="M190.3,197.1c-0.1,0-0.2,0-0.2-0.1l-5.8-6.7c-2.8-3.3-3.8-7.7-2.6-11.8l7.2-23.6c0-0.2,0.2-0.2,0.4-0.2
					c0.2,0,0.2,0.2,0.2,0.4l-7.2,23.6c-1.1,4-0.2,8.2,2.5,11.3l5.8,6.7c0.1,0.1,0.1,0.3,0,0.4C190.4,197,190.3,197.1,190.3,197.1z"
					/>
			</g>
			<g>
				<g>
					<path class="st6" d="M212,104.9c-1.6-2.2-4-3.8-6.4-5.1c-5.5-2.8-6.9-4.8-7-10.9c0-2-0.3-4.2-1-6.1c-1.4-4.4-5.7-7.2-10.2-6.3
						l-4.7,0.9c0-0.1,0-0.1,0-0.1c-3.2-1.7-7.3-0.5-8.9,2.8c-1.7,3.6,1,9.6,1,9.6c0.5-0.9,2.6-1.9,3.6-2.4c1.9-1,1.1-2.9,2.3-4.1
						c0.8-0.7,1.2-1.6,1.5-2.4c0.1,0.7,0.4,1.3,0.6,1.9c-0.9,2.4-0.6,5.3,1.6,8c0.7,0.8,1.7,1.6,2.7,1.3c0.6-0.2,1.1-0.8,1.7-0.9
						c1.5-0.4,2.5,1.8,1.9,3.3c-0.6,1.5-1.9,2.6-2.4,4.1c-0.6,2,0.7,4.2,2.7,4.8c1.3,0.3,2.7,0,3.9,0.7c1.4,0.8,1.7,2.7,1.4,4.3
						c-0.3,1.6-1,3.1-1.2,4.7c-0.2,3.1,2.1,6.1,5,7.1c2.9,1,6.3,0.4,8.9-1.2c2.3-1.4,4.1-3.5,4.8-6C214.5,110,213.7,107.1,212,104.9
						z"/>
					<g>
						<g>
							<g>
								<g>
									<g>
										<g>
											<path class="st8" d="M195.7,91.1c-0.1-1.8-1.6-3.1-3.4-3l-1.3,0.1l0-0.2c-4.1,0-7.9-2.9-8.8-7.2
												c-0.3,0.8-0.8,1.6-1.5,2.4c-1.2,1.1-3.6,1.6-5.5,2.6l-0.1,9.5c0,3.6,2.6,6.7,6.1,7.2l0.8,3.7c0.6,2.9,3.7,4.8,6.8,4.1
												l0.1,0c3.2-0.7,5.9-2.9,5.3-5.9l-2.4-9.6l1-0.1C194.4,94.5,195.8,92.9,195.7,91.1L195.7,91.1z"/>
										</g>
									</g>
									<g>
										<path class="st9" d="M192.9,92.4c0,0-0.1,0-0.1,0l-1.1-0.6c-0.1,0-0.1-0.1-0.1-0.2c0-0.1,0-0.2,0.1-0.2l1-1.3
											c0.1-0.1,0.3-0.2,0.4-0.1c0.1,0.1,0.2,0.3,0.1,0.4l-0.8,1.1l0.8,0.4c0.1,0.1,0.2,0.2,0.1,0.4
											C193.1,92.4,193,92.4,192.9,92.4z"/>
										<g>
											<path class="st6" d="M175.3,89.7c0,0.3,0.2,0.7,0.5,0.7c0.3,0,0.7-0.2,0.7-0.5c0-0.3-0.2-0.7-0.5-0.7
												C175.7,89.1,175.4,89.3,175.3,89.7z"/>
											<path class="st6" d="M180.4,89.6c0.1,0.4,0.4,0.6,0.8,0.6c0.4-0.1,0.6-0.4,0.6-0.8c-0.1-0.4-0.4-0.6-0.8-0.6
												S180.4,89.2,180.4,89.6z"/>
											<path class="st7" d="M179.1,96.6c2.8,1.3,3.5-0.7,3.7-2.1c0.1-0.5-0.4-0.8-0.8-0.5l-2.9,1.8
												C178.7,96,178.8,96.4,179.1,96.6z"/>
											<g>
												<g>
													<path class="st9" d="M181.3,98.7C181.4,98.7,181.4,98.7,181.3,98.7c0.1,0,0.8-0.4,1.3,0.1c0.1,0,0.1,0,0.2,0
														c0-0.1,0-0.1,0-0.2c-0.7-0.6-1.5-0.2-1.5-0.2C181.2,98.5,181.2,98.6,181.3,98.7C181.3,98.7,181.3,98.7,181.3,98.7z"/>
												</g>
											</g>
											<g>
												<g>
													<g>
														<g>
															<g>
																<g>
																	<path class="st6" d="M184.1,86.7c-0.2,0.1-0.5,0-0.8-0.1c-0.3-0.1-0.6-0.1-0.8-0.2c-0.3,0-0.5-0.1-0.8-0.1
																		c-0.3,0-0.6-0.1-0.8-0.2c-0.2-0.1-0.2-0.4,0.1-0.7c0.3-0.3,1-0.5,1.8-0.4c0.8,0.1,1.4,0.6,1.6,0.9
																		C184.5,86.4,184.3,86.6,184.1,86.7z"/>
																</g>
															</g>
														</g>
														<g>
															<g>
																<g>
																	<path class="st6" d="M175.3,86.4c0.2,0.1,0.4,0,0.6,0c0.2,0,0.4-0.1,0.6-0.1c0.2,0,0.4-0.1,0.6-0.1
																		c0.2,0,0.4,0,0.5-0.1c0.1-0.1,0.2-0.3-0.1-0.5c-0.2-0.2-0.7-0.4-1.3-0.3c-0.6,0.1-1,0.4-1.1,0.7
																		C175,86.2,175.1,86.4,175.3,86.4z"/>
																</g>
															</g>
														</g>
													</g>
												</g>
											</g>
											<g>
												<path class="st8" d="M181.8,90.2c0,0-0.6-0.4-1.2,0.2"/>
												<path class="st9" d="M180.6,90.6c-0.1,0-0.1,0-0.2-0.1c-0.1-0.1-0.1-0.3,0-0.4c0.6-0.6,1.3-0.4,1.5-0.2
													c0.1,0.1,0.2,0.3,0.1,0.4c-0.1,0.1-0.3,0.2-0.4,0.1c0,0-0.5-0.3-0.8,0.1C180.8,90.6,180.7,90.6,180.6,90.6z"/>
											</g>
											<g>
												<path class="st8" d="M176.3,90.3c0,0-0.4-0.2-0.7,0.1"/>
												<path class="st9" d="M175.6,90.7c-0.1,0-0.1,0-0.2-0.1c-0.1-0.1-0.1-0.3,0-0.4c0.4-0.4,0.9-0.3,1.1-0.2
													c0.1,0.1,0.2,0.3,0.1,0.4c-0.1,0.1-0.3,0.2-0.4,0.1c-0.1,0-0.2-0.1-0.3,0.1C175.8,90.6,175.7,90.7,175.6,90.7z"/>
											</g>
										</g>
										<path class="st9" d="M181.1,102.4c0,0,5.9-0.1,6.8-2.4c1-2.3,0,0,0,0s0.5,3.7-6.2,5.7L181.1,102.4z"/>
										<g>
											<path class="st8" d="M177.9,89.6l0.2,1.4c0.1,0.5-0.3,1.1-0.9,1.1l0,0c-0.3,0-0.5,0.3-0.4,0.6l0,0
												c0.1,0.9,0.9,1.5,1.8,1.4l0.6-0.1"/>
											<path class="st9" d="M178.4,94.4c-0.4,0-0.8-0.1-1.2-0.4c-0.4-0.3-0.7-0.8-0.7-1.3c-0.1-0.4,0.2-0.8,0.7-0.9
												c0.4-0.1,0.7-0.4,0.6-0.8l-0.2-1.4c0-0.2,0.1-0.3,0.2-0.3c0.2,0,0.3,0.1,0.3,0.2l0.2,1.4c0.1,0.7-0.4,1.4-1.1,1.4
												c-0.1,0-0.2,0.1-0.2,0.2c0,0.4,0.2,0.7,0.5,0.9c0.3,0.2,0.6,0.3,1,0.3l0.6-0.1c0.2,0,0.3,0.1,0.3,0.2
												c0,0.2-0.1,0.3-0.2,0.3l-0.6,0.1C178.6,94.4,178.5,94.4,178.4,94.4z"/>
										</g>
									</g>
								</g>
								<path class="st7" d="M193.2,95.9c-0.3,0-0.6-0.1-0.9-0.3c-0.3-0.2-0.5-0.6-0.6-1c-0.1-0.4,0-0.8,0.3-1.1
									c0.2-0.3,0.6-0.5,1-0.6c0.4-0.1,0.8,0,1.1,0.3c0.3,0.2,0.5,0.6,0.6,1l0,0c0.1,0.4,0,0.8-0.3,1.1c-0.2,0.3-0.6,0.5-1,0.6
									C193.4,95.9,193.3,95.9,193.2,95.9z M193.2,93.5c0,0-0.1,0-0.1,0c-0.2,0-0.5,0.2-0.6,0.4c-0.1,0.2-0.2,0.4-0.2,0.7
									c0,0.2,0.2,0.5,0.4,0.6c0.2,0.1,0.4,0.2,0.7,0.2c0.2,0,0.5-0.2,0.6-0.4c0.1-0.2,0.2-0.4,0.2-0.7v0c0-0.2-0.2-0.5-0.4-0.6
									C193.6,93.6,193.4,93.5,193.2,93.5z"/>
							</g>
							<g>
								<path class="st11" d="M186.5,89.3l5.8-1.3c0.5-0.1,0.8-0.7,0.5-1.1l0,0c-0.2-0.3-0.5-0.5-0.8-0.4l-5.8,1.3
									c-0.4,0.1-0.6,0.4-0.6,0.8l0,0C185.6,89,186,89.4,186.5,89.3z"/>
								<g>
									<g>
										<g>
											<path class="st12" d="M176,92.4c0.5-0.2,1-0.4,1.5-0.6c0.7-0.2,1.5-0.2,2.2-0.1l0.7,0.4c1.3,0.7,2.9,0.8,4.3,0
												c0.2-0.1,0.3-0.2,0.4-0.3c0.7-0.6,1.1-1.5,1-2.5l0-0.3c-0.1-1.7-1.3-3-2.7-3l-7.8,0.2c-1.5,0-2.6,1.4-2.6,3.1
												c0,0,0,0.3,0,0.3c0,0.8,0.4,1.7,1,2.3C174.8,92.7,175.4,92.6,176,92.4z"/>
										</g>
									</g>
								</g>
								<g class="st13">
									<path class="st7" d="M176.6,91.1c0.5-0.1,1.1-0.4,1.7-0.5c0.9-0.1,1.7,0.2,2.6,0.4c1.4,0.4,4.2,0,3.9-2.2
										c-0.1-1.1-1.2-1.9-2.2-1.9c0,0-6.2,0.2-6.2,0.2c-1.7,0.1-2.9,2.4-1.4,3.7C175.5,91.3,176,91.3,176.6,91.1z"/>
								</g>
								<g>
									<polygon class="st14" points="175.5,91.1 174.9,90.8 177.2,87.2 177.9,87.1 									"/>
									<polygon class="st14" points="178.6,90.6 178,90.7 180.1,87.1 180.8,87 									"/>
								</g>
							</g>
						</g>
					</g>
				</g>
				<g>
					<g>
						<g>
							<path class="st8" d="M176.6,108.5l-6.2,9.4l-8.1-9.9l0.1-0.1l-1.3-1.5l0,0c0.2-0.3,0.3-0.6,0.3-0.9l0.2-2.5l0.7-3.5
								c0.1-0.4-0.2-0.7-0.6-0.7l-0.2,0c-0.5,0-1,0.3-1.2,0.9l-0.9,2.5l-0.1,0.1l-5.5-8.4c-0.2-0.2-0.5-0.3-0.8-0.1l-0.1,0
								c-0.6,0.4-0.8,1.2-0.5,1.8l2.4,5.2l-2.9,2.6c-1.2,1.1-1.5,3-0.6,4.4l4,6.5l7.1,17.1c3,7.3,13.1,8.1,17.2,1.3l6.2-10.2
								L176.6,108.5z"/>
							<g>
								<line class="st8" x1="170.2" y1="117.6" x2="173.2" y2="121.4"/>
								<path class="st9" d="M173.2,121.7c-0.1,0-0.2,0-0.2-0.1l-3.1-3.9c-0.1-0.1-0.1-0.3,0-0.4c0.1-0.1,0.3-0.1,0.4,0l3.1,3.9
									c0.1,0.1,0.1,0.3,0,0.4C173.4,121.7,173.3,121.7,173.2,121.7z"/>
							</g>
							<g>
								<path class="st8" d="M154.5,100.2L154.5,100.2l2,5.6c0.2,0.5,0,1.1-0.5,1.4l-0.3,0.2c-0.2,0.1-0.4,0-0.5-0.2l-2.2-5.1
									c-0.2-0.4,0-0.9,0.4-1.2L154.5,100.2z"/>
								<path class="st9" d="M155.4,107.7c-0.1,0-0.1,0-0.2,0c-0.2-0.1-0.3-0.2-0.4-0.4l-2.2-5.1c-0.2-0.6,0-1.2,0.5-1.5l1.5-0.8
									l0.1,0.4l2,5.5c0.2,0.7,0,1.4-0.6,1.7l-0.3,0.2C155.7,107.7,155.6,107.7,155.4,107.7z M154.3,100.6l-0.9,0.5
									c-0.3,0.2-0.4,0.5-0.3,0.8l2.2,5.1c0,0,0,0,0,0c0,0,0,0,0.1,0l0.3-0.2c0.4-0.2,0.5-0.6,0.4-1L154.3,100.6z"/>
							</g>
							<g>
								<path class="st8" d="M152.7,101.5L152.7,101.5l1.8,5c0.2,0.5,0,1-0.5,1.2l-0.3,0.2c-0.2,0.1-0.4,0-0.5-0.2l-2-4.6
									c-0.2-0.4,0-0.8,0.4-1.1L152.7,101.5z"/>
								<path class="st9" d="M153.6,108.2c-0.1,0-0.1,0-0.2,0c-0.2-0.1-0.3-0.2-0.4-0.3l-2-4.6c-0.2-0.5,0-1.1,0.5-1.4l1.3-0.8
									l0.1,0.4l1.8,4.9c0.2,0.6,0,1.3-0.6,1.6l-0.3,0.2C153.8,108.2,153.7,108.2,153.6,108.2z M152.5,101.9l-0.7,0.4
									c-0.2,0.1-0.3,0.4-0.2,0.7l2,4.6l0.1,0l0.3-0.2c0.3-0.2,0.5-0.6,0.3-0.9L152.5,101.9z"/>
							</g>
							<g>
								<path class="st8" d="M151.2,102.5L151.2,102.5l1.6,4.5c0.2,0.4,0,0.9-0.4,1.1l-0.3,0.2c-0.2,0.1-0.4,0-0.4-0.1L150,104
									c-0.1-0.4,0-0.8,0.3-1L151.2,102.5z"/>
								<path class="st9" d="M152.1,108.6c-0.1,0-0.1,0-0.2,0c-0.2-0.1-0.3-0.2-0.4-0.3l-1.8-4.2c-0.2-0.5,0-1.1,0.5-1.3l1.2-0.7
									l0.1,0.4l1.6,4.4c0.2,0.6,0,1.2-0.5,1.5l-0.3,0.2C152.3,108.6,152.2,108.6,152.1,108.6z M151.1,102.9l-0.6,0.4
									c-0.2,0.1-0.3,0.4-0.2,0.6l1.8,4.2l0.3-0.1c0.3-0.2,0.4-0.5,0.3-0.8L151.1,102.9z"/>
							</g>
						</g>
						<g>
							<path class="st15" d="M212.1,117.3l-3.1-7.5c-1.8-4.3-6.2-7-10.8-6.7l-6.4,0.9c-0.3,0-0.5,0.1-0.8,0.1l-0.2,0l0,0
								c-0.3,0.1-0.6,0.1-0.9,0.2l-0.4,0.1l-9.5,2c-2.3,0.5-4.3,1.7-5.7,3.5l-3.4,5c-0.3,0.5-0.3,1.2,0.1,1.6l6.3,8.3l-2.7,22.6
								c-0.3,1.1-1,6.1,0.2,5.8l34.5-3.9c0.9-0.1,1.6-1,1.4-1.9l-5-26.2l5.4-1.7c0.1,0,0.2-0.1,0.3-0.1
								C212,119.1,212.4,118.2,212.1,117.3z"/>
							<path class="st7" d="M196.7,126.4c-0.1,0-0.3-0.1-0.3-0.2l-0.6-2.9l-1,0.1c-0.3,0.1-0.7,0-0.9-0.2c-0.3-0.2-0.5-0.6-0.5-1.1
								l-0.4-8.1c0-0.2,0.1-0.3,0.3-0.3c0.1,0,0.3,0.1,0.3,0.3l0.4,8.1c0,0.3,0.1,0.5,0.3,0.6c0.1,0.1,0.3,0.1,0.5,0.1l1.6-0.1
								l0.7,3.4C197,126.2,196.9,126.4,196.7,126.4C196.7,126.4,196.7,126.4,196.7,126.4z"/>
							<path class="st7" d="M177,129.4C177,129.4,177,129.4,177,129.4c-0.2,0-0.3-0.2-0.3-0.3l1.2-11.6c0-0.2,0.2-0.3,0.3-0.3
								c0.2,0,0.3,0.2,0.3,0.3l-1.2,11.6C177.3,129.3,177.2,129.4,177,129.4z"/>
						</g>
						<g>
							<g>
								<g>
									<g>
										<path class="st8" d="M214,124.3l-2.7-4.8c-0.1,0.1-0.2,0.1-0.3,0.1l-14.7,3l0.4,2.5l-16,2.9c-0.7-0.3-1.4-0.6-2.1-0.8
											c0,0-4.9-0.9-6.6-0.9c-0.2,0-0.4,0-0.5,0.1c-0.2,0.1-0.3,0.2-0.4,0.4c-0.1,0.2,0.1,0.5,0.2,0.7c0.4,0.6,1.1,1,1.7,1.4
											c-0.6,0.2-1.3,0.4-2,0.6c-1.5,0.5-4.1,1.1-3.3,3c0.3,0.6,0.9,0.6,1.5,0.4c-0.7,0.5-1.3,1.1-0.7,2c0.4,0.9,1.3,0.6,2,0.2
											c-0.4,0.3-0.7,0.7-0.4,1.3c0.5,1.1,1.5,0.9,2.4,0.4c-0.7,0.7,0.6,1.6,1.8,1.3l8-1.8l22.2,2.5
											C212.3,139.5,217.9,131.2,214,124.3z"/>
									</g>
									<path class="st16" d="M173,128.8l3.5-0.7c0,0-4-0.2-4.6-0.1L173,128.8z"/>
								</g>
								<path class="st9" d="M168.9,133.2c-0.1,0-0.2,0-0.2-0.1c-0.1-0.1,0-0.3,0.1-0.4c0.3-0.2,2.1-0.7,2.4-0.8
									c0.2,0,0.3,0,0.4,0.2c0,0.2,0,0.3-0.2,0.4c-1,0.3-2.1,0.6-2.3,0.7C169,133.2,168.9,133.2,168.9,133.2z"/>
								<path class="st9" d="M170.4,135.3c-0.1,0-0.2-0.1-0.3-0.2c0-0.2,0-0.3,0.2-0.4l1.9-0.6c0.2,0,0.3,0,0.4,0.2
									c0,0.2,0,0.3-0.2,0.4L170.4,135.3C170.4,135.3,170.4,135.3,170.4,135.3z"/>
								<path class="st9" d="M172.5,136.9c-0.1,0-0.2-0.1-0.3-0.2c-0.1-0.2,0-0.3,0.2-0.4l1-0.3c0.2-0.1,0.3,0,0.4,0.2
									c0.1,0.2,0,0.3-0.2,0.4L172.5,136.9C172.6,136.9,172.5,136.9,172.5,136.9z"/>
							</g>
							<g>
								<line class="st8" x1="196.3" y1="125.3" x2="201.1" y2="124.5"/>
								<path class="st9" d="M196.3,125.6c-0.1,0-0.3-0.1-0.3-0.2c0-0.2,0.1-0.3,0.2-0.3l4.9-0.8c0.2,0,0.3,0.1,0.3,0.2
									c0,0.2-0.1,0.3-0.2,0.3L196.3,125.6C196.3,125.6,196.3,125.6,196.3,125.6z"/>
							</g>
							<path class="st16" d="M169.9,134.2c-0.5,0.3-1,0.5-1.4,0.3c0,0,0,0.1,0.1,0.1c0.2,0.4,0.5,0.6,0.9,0.6
								C169.2,134.9,169.5,134.5,169.9,134.2z"/>
							<path class="st17" d="M171.1,126.7c0.1-0.2,0.2-0.3,0.4-0.4c0.2-0.1,0.4-0.1,0.5-0.1c1.7,0,4.9,0.6,4.9,0.6
								c0,0,0.1-0.5,0.1-0.5c0,0-3.9-0.8-5.6-0.7c-0.2,0-0.4,0-0.5,0.1c-0.2,0.1-0.3,0.2-0.4,0.4c-0.1,0.2,0.1,0.5,0.2,0.7
								c0.2,0.3,0.4,0.5,0.7,0.7c0,0,0,0,0,0C171.2,127.2,171,126.9,171.1,126.7z"/>
							<path class="st17" d="M171,129.3c0.7-0.2,1.4-0.4,2-0.6c-0.3-0.2-0.6-0.4-0.9-0.6c-0.6,0.2-1.1,0.3-1.8,0.5
								c-1.5,0.5-4.1,1.1-3.3,3c0.2,0.3,0.4,0.5,0.6,0.5C167.1,130.4,169.5,129.9,171,129.3z"/>
							<path class="st16" d="M169.2,132.8c-0.5,0.2-1,0.2-1.3-0.2c-0.3,0.4-0.5,0.9-0.1,1.4c0.2,0.3,0.4,0.5,0.6,0.5
								C168,133.8,168.5,133.2,169.2,132.8z"/>
							<path class="st16" d="M170.6,134.9c-0.4,0.2-0.8,0.4-1.2,0.4c0,0.1,0.1,0.2,0.1,0.3c0.2,0.4,0.4,0.6,0.7,0.7c0,0,0,0,0,0
								C169.8,135.7,170.1,135.3,170.6,134.9z"/>
						</g>
					</g>
				</g>
			</g>
		</g>
		<g class="st18">
			<g>
				<path class="st19" d="M219.2,150.6c3.2,0.8,6.4,1.7,9.5,2.8c3.1,1.1,6.2,2.3,9.2,3.9c1.5,0.8,2.9,1.7,4.2,3
					c0.6,0.6,1.3,1.4,1.7,2.4c0.2,0.5,0.3,1.1,0.2,1.7c-0.1,0.6-0.3,1.2-0.6,1.7c-0.6,1-1.5,1.5-2.3,2c-0.8,0.4-1.6,0.8-2.5,1.1
					c-1.7,0.6-3.3,0.9-5,1.2c-3.3,0.5-6.7,0.7-10,0.8c-3.3,0-6.7,0-10-0.2c-6.6-0.4-13.2-1.2-19.8-2.3c-6.5-1.1-13-2.6-19.4-4.4
					c-3.2-0.9-6.4-1.9-9.5-3.1c-3.1-1.1-6.2-2.4-9.2-4c-1.5-0.8-3-1.7-4.4-2.7c-0.7-0.5-1.4-1.1-2-1.7c-0.6-0.7-1.3-1.4-1.7-2.4
					c-0.2-0.5-0.4-1.1-0.4-1.7c0-0.6,0.2-1.2,0.4-1.8c0.6-1,1.4-1.6,2.2-2.1c1.6-0.9,3.3-1.3,5-1.6c3.3-0.6,6.7-0.8,10-0.7
					c3.3,0,6.6,0.2,9.9,0.6c0.1,0,0.3,0.1,0.2,0.3c0,0.1-0.1,0.2-0.3,0.2c-1.6,0-3.3,0-4.9,0.1c-1.6,0-3.3,0.1-4.9,0.2
					c-3.3,0.2-6.5,0.6-9.6,1.3c-1.5,0.4-3.1,0.9-4.3,1.6c-0.6,0.4-1.1,0.8-1.3,1.3c-0.2,0.4-0.2,0.8,0.1,1.3
					c0.3,0.5,0.7,1.1,1.2,1.5c0.5,0.5,1.1,1,1.8,1.4c1.3,0.9,2.7,1.6,4.1,2.3c5.8,2.7,12,4.8,18.3,6.4c6.3,1.7,12.7,3.1,19.1,4.2
					c6.4,1.1,12.9,2,19.4,2.5c6.5,0.5,13,0.7,19.4,0c1.6-0.2,3.2-0.5,4.6-0.9c0.7-0.2,1.4-0.5,2.1-0.8c0.6-0.3,1.2-0.7,1.5-1.1
					c0.3-0.4,0.4-0.8,0.2-1.4c-0.2-0.5-0.6-1.1-1.1-1.7c-1-1.1-2.3-2-3.7-2.9c-2.7-1.7-5.7-3.1-8.7-4.4c-3-1.3-6.1-2.5-9.2-3.6
					c-0.1,0-0.1-0.1-0.1-0.1C219,150.6,219.1,150.6,219.2,150.6z"/>
				<path class="st5" d="M209.9,142.6c3.7-0.7,7.5-1.4,11.3-1.8c3.8-0.4,7.6-0.7,11.5-0.6c1.9,0,3.9,0.2,5.8,0.5
					c1,0.2,1.9,0.4,2.9,0.8c1,0.4,2,0.8,2.8,1.7c0.2,0.2,0.4,0.5,0.6,0.7c0.2,0.3,0.3,0.6,0.4,0.9c0.1,0.3,0.2,0.7,0.2,1
					c0,0.3,0,0.7,0,1c-0.2,1.3-0.8,2.2-1.4,3.1c-0.3,0.4-0.7,0.8-1,1.2c-0.4,0.4-0.7,0.7-1.1,1.1c-0.7,0.7-1.5,1.3-2.3,1.9
					c-3.2,2.3-6.5,4.2-10,5.9c-3.5,1.7-7,3.2-10.5,4.6c-7.1,2.8-14.4,5.1-21.8,7.1c-7.4,2-14.9,3.6-22.4,4.8
					c-3.8,0.6-7.6,1-11.4,1.4c-3.8,0.3-7.7,0.5-11.6,0.3c-1.9-0.1-3.9-0.3-5.8-0.6c-1-0.2-2-0.4-2.9-0.7c-1-0.3-2-0.7-2.9-1.4
					c-0.5-0.3-0.9-0.8-1.3-1.3c-0.2-0.3-0.4-0.5-0.5-0.9l-0.2-0.5c0-0.2-0.1-0.3-0.1-0.5c-0.1-0.7,0-1.3,0.2-1.9
					c0.2-0.6,0.5-1.1,0.8-1.5c1.2-1.8,2.8-3.1,4.3-4.2c1.6-1.1,3.3-2.1,4.9-3.1c1.7-0.9,3.4-1.8,5.1-2.6c1.7-0.8,3.5-1.5,5.3-2.2
					c1.8-0.7,3.6-1.3,5.4-2c0.1,0,0.3,0,0.3,0.2c0,0.1,0,0.3-0.1,0.3c-1.7,0.8-3.5,1.6-5.2,2.4c-1.7,0.8-3.4,1.7-5.1,2.5
					c-3.3,1.8-6.6,3.7-9.5,6c-1.4,1.1-2.8,2.4-3.6,3.8c-0.2,0.3-0.4,0.7-0.5,1c-0.1,0.3-0.1,0.6-0.1,0.9c0.1,0.5,0.5,1,1.1,1.4
					c1.3,0.8,3.1,1.3,4.8,1.5c1.8,0.3,3.6,0.4,5.5,0.4c7.4,0.1,14.9-0.8,22.3-2.1c7.4-1.2,14.8-2.9,22.1-4.8
					c7.3-1.9,14.5-4.2,21.5-6.8c3.5-1.3,7-2.7,10.4-4.3c3.4-1.6,6.7-3.3,9.7-5.4c0.8-0.5,1.5-1.1,2.2-1.6c0.3-0.3,0.7-0.6,1-0.9
					c0.3-0.3,0.6-0.6,0.9-1c0.5-0.6,0.9-1.3,1-2c0.1-0.6,0-1.1-0.5-1.6c-0.5-0.5-1.2-0.9-2-1.3c-0.8-0.3-1.7-0.6-2.5-0.8
					c-1.8-0.4-3.6-0.6-5.5-0.8c-3.7-0.3-7.5-0.2-11.3,0c-3.8,0.2-7.6,0.5-11.3,1c-0.1,0-0.1,0-0.1-0.1
					C209.8,142.7,209.8,142.6,209.9,142.6z"/>
			</g>
		</g>
	</g>
	<g>
		<g>
			<g>
				<g>
					<path class="st5" d="M45.8,167.4l-2.3,0.4l-13.2,2.5c-0.9,0.2-1.5-0.8-0.9-1.5L43,151.1c0.4-0.5,1.1-0.5,1.5-0.2l8.3,6.4
						L45.8,167.4z"/>
					<path class="st6" d="M44.4,152.1c0.4-0.5,1.1-0.5,1.5-0.2l7,5.3l0,0l-8.3-6.4c-0.5-0.4-1.1-0.3-1.5,0.2l-13.8,17.6
						c-0.5,0.7,0.1,1.7,0.9,1.5l0.2,0c0-0.1,0.1-0.3,0.2-0.4L44.4,152.1z"/>
					<path class="st7" d="M32.3,168.1c-0.1,0-0.1,0-0.2-0.1c-0.1-0.1-0.1-0.3-0.1-0.4l12.7-16.5c0.1-0.1,0.3-0.1,0.4-0.1
						c0.1,0.1,0.1,0.3,0.1,0.4l-12.7,16.5C32.5,168,32.4,168.1,32.3,168.1z"/>
					<path class="st7" d="M46.2,160.3c0,0-0.1,0-0.1,0c-0.6,0-1.1-0.3-1.5-0.7c-0.4-0.4-0.6-1-0.5-1.5c0-0.6,0.3-1.1,0.7-1.5
						c0.9-0.8,2.2-0.7,3,0.2c0.8,0.9,0.7,2.2-0.2,3C47.3,160.1,46.7,160.3,46.2,160.3z M46.2,156.6c-0.4,0-0.7,0.1-1,0.4
						c-0.3,0.3-0.5,0.7-0.5,1.1c0,0.4,0.1,0.8,0.4,1.1c0.3,0.3,0.7,0.5,1.1,0.5c0.4,0,0.8-0.1,1.1-0.4c0.6-0.6,0.7-1.6,0.1-2.2
						C47.1,156.7,46.6,156.6,46.2,156.6z"/>
					<path class="st7" d="M43.4,168c-0.1,0-0.3-0.1-0.3-0.2l-0.5-2.7c0-0.2,0.1-0.3,0.2-0.3c0.2,0,0.3,0.1,0.3,0.2l0.5,2.7
						C43.8,167.9,43.7,168,43.4,168C43.5,168,43.5,168,43.4,168z"/>
					<path class="st7" d="M41.4,168.4c-0.1,0-0.3-0.1-0.3-0.2l-0.5-2.7c0-0.2,0.1-0.3,0.2-0.3c0.2,0,0.3,0.1,0.3,0.2l0.5,2.7
						C41.7,168.2,41.6,168.4,41.4,168.4C41.4,168.4,41.4,168.4,41.4,168.4z"/>
					<path class="st7" d="M39.3,168.7c-0.1,0-0.3-0.1-0.3-0.2l-0.5-2.7c0-0.2,0.1-0.3,0.2-0.3c0.2,0,0.3,0.1,0.3,0.2l0.5,2.7
						C39.7,168.5,39.6,168.7,39.3,168.7C39.4,168.7,39.4,168.7,39.3,168.7z"/>
				</g>
				<g>
					<path class="st6" d="M104.5,152.8l-6-20c0,0-35.7-9.3-35.8-8.6l-6.7,28.8l-4-0.3c-0.5,0-0.9,0.2-1.1,0.7L42.4,171
						c-0.4,0.8,0.2,1.7,1.1,1.7l7.8-0.1l-5.7,24.3c-0.1,0.3,0.1,0.7,0.5,0.8l16.4,4.9c0.7,0.2,1.4-0.2,1.6-0.9l9.2-29.2l17.3-0.1
						C100.7,172.2,107.7,162.3,104.5,152.8z M79,154.6l1.3-4.2l2.9,4.4L79,154.6z"/>
					<g>
						<path class="st7" d="M72.2,176.5C72.2,176.5,72.2,176.5,72.2,176.5c-0.2-0.1-0.3-0.2-0.3-0.4L84.7,137c0-0.2,0.2-0.2,0.4-0.2
							c0.2,0,0.2,0.2,0.2,0.4l-12.7,39.2C72.5,176.4,72.3,176.5,72.2,176.5z"/>
						<path class="st7" d="M85.9,159.3c-0.1,0-0.2,0-0.2-0.1l-5.3-8.3c-0.1-0.1,0-0.3,0.1-0.4c0.1-0.1,0.3,0,0.4,0.1l5.3,8.3
							c0.1,0.1,0,0.3-0.1,0.4C86,159.2,85.9,159.3,85.9,159.3z"/>
					</g>
				</g>
				<g>
					<path class="st5" d="M60,201.7l1.1,2l6.7,11.7c0.4,0.8-0.3,1.7-1.2,1.4l-21.2-7.3c-0.6-0.2-0.9-0.8-0.7-1.4l3.3-10L60,201.7z"
						/>
					<path class="st6" d="M67.8,215.4l-0.2-0.4c-0.2,0.1-0.4,0.1-0.7,0l-21.2-7.3c-0.3-0.1-0.5-0.3-0.6-0.5l-0.3,0.9
						c-0.2,0.6,0.1,1.2,0.7,1.4l21.2,7.3C67.5,217.1,68.2,216.2,67.8,215.4z"/>
					<path class="st7" d="M64.7,214.5C64.7,214.5,64.7,214.5,64.7,214.5l-19.8-6.7c-0.2-0.1-0.2-0.2-0.2-0.4
						c0.1-0.2,0.2-0.2,0.4-0.2l19.7,6.7c0.2,0.1,0.2,0.2,0.2,0.4C65,214.5,64.9,214.5,64.7,214.5z"/>
					<path class="st7" d="M51.1,206.4c-0.4,0-0.7-0.1-1-0.3c-1-0.6-1.4-1.9-0.8-2.9c0.3-0.5,0.7-0.9,1.3-1c0.5-0.2,1.1-0.1,1.6,0.2
						c1,0.6,1.4,1.9,0.8,2.9c-0.3,0.5-0.7,0.9-1.3,1C51.5,206.3,51.3,206.4,51.1,206.4z M51.1,202.7c-0.5,0-1.1,0.3-1.4,0.8
						c-0.4,0.8-0.1,1.7,0.6,2.1c0.4,0.2,0.8,0.2,1.2,0.1c0.4-0.1,0.7-0.4,0.9-0.7c0.4-0.8,0.1-1.7-0.6-2.1
						C51.6,202.7,51.3,202.7,51.1,202.7z"/>
					<path class="st7" d="M58.7,205.4c-0.1,0-0.2-0.1-0.3-0.1c-0.1-0.1,0-0.3,0.1-0.4l2.4-1.4c0.1-0.1,0.3,0,0.4,0.1
						c0.1,0.1,0,0.3-0.1,0.4l-2.4,1.4C58.8,205.4,58.7,205.4,58.7,205.4z"/>
					<path class="st7" d="M59.7,207.2c-0.1,0-0.2-0.1-0.3-0.1c-0.1-0.1,0-0.3,0.1-0.4l2.4-1.4c0.1-0.1,0.3,0,0.4,0.1
						c0.1,0.1,0,0.3-0.1,0.4l-2.4,1.4C59.8,207.2,59.7,207.2,59.7,207.2z"/>
					<path class="st7" d="M60.6,209c-0.1,0-0.2-0.1-0.3-0.1c-0.1-0.1,0-0.3,0.1-0.4l2.4-1.4c0.1-0.1,0.3,0,0.4,0.1
						c0.1,0.1,0,0.3-0.1,0.4l-2.4,1.4C60.7,209,60.7,209,60.6,209z"/>
					<path class="st7" d="M59.5,203l-0.2-0.1c-0.4-0.4-0.6-3.2-0.6-3.6v0c0-0.3,0.2-0.6,0.5-0.8c0.3-0.2,0.6-0.3,0.9-0.2
						c0.3,0,0.6,0.2,0.8,0.5c0.2,0.3,0.3,0.6,0.2,0.9c0,0.2-0.8,3.3-1.6,3.4L59.5,203z M59.7,202.5L59.7,202.5L59.7,202.5z
						 M59.3,199.3c-0.1,0.4,0.2,2.3,0.3,2.9c0.4-0.5,0.9-2.2,1-2.8c0-0.2,0-0.4-0.1-0.5c-0.1-0.1-0.3-0.2-0.4-0.3
						C59.7,198.7,59.4,199,59.3,199.3z"/>
					<path class="st7" d="M62,203.3c-1,0-2.6-0.1-2.7-0.5c0-0.1,0-0.2,0.1-0.4c0.4-0.7,2.6-1.5,3-1.5l0,0c0.7-0.1,1.3,0.3,1.5,1
						c0.1,0.7-0.3,1.3-1,1.5C62.9,203.3,62.5,203.3,62,203.3z M60,202.5c0.6,0.1,2.4,0.2,2.8,0.1c0.4-0.1,0.6-0.4,0.5-0.8
						c-0.1-0.4-0.4-0.6-0.8-0.5h0C62,201.5,60.4,202.2,60,202.5z M62.4,201.1L62.4,201.1L62.4,201.1z"/>
				</g>
			</g>
			<g>
				<g>
					<g>
						<g>
							<g>
								<g>
									<path class="st6" d="M79.8,72.6c0.6,1.2,1,2,1,2l0.5-2.1L80,72.6C80,72.6,79.9,72.6,79.8,72.6z"/>
									<g>
										<path class="st8" d="M96.8,59.8c0-0.1,0-0.2-0.1-0.3c0,0.1-0.1,0.1-0.1,0.1c-1.1-3.6-5.4-2.1-5.4-2.1
											c-3.5,2-6.1,0.5-6.1,0.5l0,1.1c0.1,2.1-0.2,4.2-0.8,6.3l-5,0.4c-0.9,0.1-1.7,0.5-2.2,1.1c-0.6,0.7-1,1.6-0.9,2.6l0,0.1
											c0.2,1.8,1.7,3.2,3.5,3.1c0.1,0,0.1,0,0.2,0l1-0.1L80,82.9c-0.2,3.1,3,5.1,6.4,5.3l0.1,0c3.4,0.2,6.3-2.2,6.5-5.3l0.2-4
											c3.5-1.1,5.8-4.7,5.3-8.5L96.8,59.8z"/>
										<path class="st6" d="M84.4,65.3c0.6-2,0.8-4.1,0.8-6.3l0-1.1c0,0,2.7,1.5,6.1-0.5c0,0,4.3-1.4,5.4,2.1c0,0,0,0,0.1-0.1
											c0.6-0.8,4.8-7.3-0.7-9.1c-5.9-1.9-6.5,2-6.5,2s-1.8-4.3-6.7-2c-4.9,2.3-3.1,5.5-3.1,5.5S75,58,75.4,61.5
											c0.1,1.2,0.9,3.2,1.8,5.3c0.6-0.6,1.3-1,2.2-1.1L84.4,65.3z"/>
									</g>
								</g>
							</g>
							<g>
								<path class="st9" d="M79.4,70.4c-0.1,0-0.2,0-0.2-0.1c-0.1-0.1-0.1-0.3,0.1-0.4l0.8-0.6l-1-1c-0.1-0.1-0.1-0.3,0-0.4
									c0.1-0.1,0.3-0.1,0.4,0l1.3,1.3c0.1,0.1,0.1,0.1,0.1,0.2c0,0.1,0,0.2-0.1,0.2l-1.1,0.8C79.5,70.4,79.5,70.4,79.4,70.4z"/>
								<g>
									<path class="st6" d="M97.1,65.4c0.1,0.4-0.1,0.7-0.5,0.8c-0.4,0.1-0.7-0.1-0.8-0.5c-0.1-0.4,0.1-0.7,0.5-0.8
										C96.6,64.8,97,65,97.1,65.4z"/>
									<path class="st6" d="M91.8,66c0,0.4-0.3,0.7-0.7,0.7c-0.4,0-0.7-0.3-0.7-0.7c0-0.4,0.3-0.7,0.7-0.7
										C91.4,65.3,91.8,65.6,91.8,66z"/>
									<g>
										<g>
											<path class="st9" d="M92.5,75.2C92.4,75.2,92.4,75.2,92.5,75.2c-0.1,0-0.9-0.3-1.4,0.3c0,0.1-0.1,0.1-0.2,0
												c-0.1,0-0.1-0.1,0-0.2c0.6-0.8,1.6-0.4,1.6-0.4C92.5,75,92.6,75.1,92.5,75.2C92.5,75.2,92.5,75.2,92.5,75.2z"/>
										</g>
									</g>
									<g>
										<g>
											<g>
												<g>
													<g>
														<g>
															<path class="st6" d="M87.9,62.2c0.3,0,0.6-0.1,0.9-0.1c0.3-0.1,0.6-0.2,0.9-0.2c0.3-0.1,0.6-0.1,0.9-0.2
																c0.3-0.1,0.6-0.1,0.8-0.3c0.2-0.2,0.2-0.4-0.1-0.7c-0.3-0.3-1.1-0.5-1.9-0.2c-0.9,0.2-1.4,0.7-1.6,1.1
																C87.4,62,87.6,62.2,87.9,62.2z"/>
														</g>
													</g>
												</g>
												<g>
													<g>
														<g>
															<path class="st6" d="M97.1,61.2c-0.2,0.1-0.4,0-0.6,0c-0.2,0-0.4-0.1-0.6-0.1c-0.2,0-0.4,0-0.6,0
																c-0.2,0-0.4,0-0.6-0.1c-0.2-0.1-0.2-0.3,0-0.6c0.2-0.2,0.7-0.5,1.3-0.4c0.6,0.1,1,0.4,1.2,0.7
																C97.4,60.9,97.3,61.2,97.1,61.2z"/>
														</g>
													</g>
												</g>
											</g>
										</g>
									</g>
									<g>
										<path class="st8" d="M90.4,66.9c0,0,0.6-0.5,1.3,0"/>
										<path class="st9" d="M90.4,67.1c-0.1,0-0.2,0-0.2-0.1c-0.1-0.1-0.1-0.3,0-0.4c0.3-0.2,1-0.5,1.6,0
											c0.1,0.1,0.2,0.3,0.1,0.4c-0.1,0.1-0.3,0.2-0.4,0.1c-0.5-0.3-0.9,0-0.9,0C90.5,67.1,90.4,67.1,90.4,67.1z"/>
									</g>
									<g>
										<path class="st8" d="M96.1,66.1c0,0,0.4-0.3,0.8,0"/>
										<path class="st9" d="M96.9,66.4c-0.1,0-0.1,0-0.2-0.1c-0.2-0.2-0.3-0.1-0.4,0c-0.1,0.1-0.3,0.1-0.4-0.1
											c-0.1-0.1-0.1-0.3,0-0.4c0.2-0.2,0.7-0.3,1.1,0.1c0.1,0.1,0.1,0.3,0,0.4C97,66.4,97,66.4,96.9,66.4z"/>
									</g>
								</g>
								<path class="st9" d="M93.3,79c0,0-6.2,0.8-7.5-1.5c-1.4-2.3,0,0,0,0s0.1,3.9,7.3,5L93.3,79z"/>
								<g>
									<path class="st8" d="M94.7,65.2l0,1.5c0,0.6,0.5,1.1,1.1,1l0,0c0.3,0,0.5,0.2,0.5,0.5l0,0c0,0.9-0.7,1.7-1.7,1.7L94,70"/>
									<path class="st9" d="M94,70.3c-0.2,0-0.3-0.1-0.3-0.3c0-0.2,0.1-0.3,0.3-0.3l0.6,0c0.4,0,0.7-0.2,1-0.4
										c0.3-0.3,0.4-0.6,0.4-1c0-0.1,0-0.1-0.1-0.2c0,0-0.1-0.1-0.2-0.1c0,0,0,0,0,0c-0.7,0-1.3-0.6-1.3-1.3l0-1.5
										c0-0.2,0.1-0.3,0.3-0.3c0,0,0,0,0,0c0.2,0,0.3,0.1,0.3,0.3l0,1.5c0,0.4,0.3,0.8,0.8,0.8c0,0,0,0,0,0c0.2,0,0.4,0.1,0.6,0.2
										c0.2,0.2,0.2,0.4,0.2,0.6c0,0.5-0.2,1-0.6,1.4c-0.4,0.4-0.9,0.6-1.4,0.6L94,70.3C94,70.3,94,70.3,94,70.3z"/>
								</g>
								<g>
									<path class="st8" d="M92.8,71.6c0,0.6-0.5,1.1-1.1,1.1s-1.1-0.5-1.1-1.1c0-0.6,0.5-1.1,1.1-1.1
										C92.3,70.5,92.8,71,92.8,71.6z"/>
									<path class="st9" d="M91.7,73C91.7,73,91.7,73,91.7,73c-0.4,0-0.7-0.2-1-0.4c-0.3-0.3-0.4-0.6-0.4-1c0-0.4,0.2-0.7,0.4-1
										c0.3-0.3,0.6-0.4,1-0.4c0.8,0,1.4,0.6,1.4,1.4C93.1,72.3,92.5,73,91.7,73z M91.7,70.7c-0.2,0-0.4,0.1-0.6,0.2
										c-0.2,0.2-0.2,0.4-0.2,0.6c0,0.2,0.1,0.4,0.2,0.6c0.2,0.2,0.4,0.2,0.6,0.2c0.2,0,0.4-0.1,0.6-0.2c0.2-0.2,0.2-0.4,0.2-0.6
										C92.5,71.1,92.2,70.7,91.7,70.7C91.7,70.7,91.7,70.7,91.7,70.7z"/>
								</g>
							</g>
						</g>
					</g>
					<g>
						<g>
							<g>
								<g>
									<path class="st12" d="M97.9,67.7c-0.6-0.1-1.2-0.3-1.8-0.4c-0.8-0.1-1.7,0-2.5,0.2L93,68c-1.4,1-3.1,1.3-4.7,0.7
										c-0.2-0.1-0.4-0.2-0.5-0.2c-0.8-0.5-1.4-1.5-1.6-2.6l0-0.4c-0.2-1.8,0.9-3.5,2.6-3.7l8.7-1c1.6-0.2,3.1,1.2,3.3,3
										c0,0,0,0.4,0,0.4c0.1,0.9-0.2,1.9-0.8,2.6C99.4,67.8,98.7,67.8,97.9,67.7z"/>
								</g>
							</g>
						</g>
						<g class="st20">
							<path class="st7" d="M97.1,66.4c-0.6-0.1-1.3-0.2-1.9-0.2c-1,0-1.9,0.5-2.8,0.9c-1.5,0.6-4.7,0.6-4.7-1.8
								c0-1.2,1-2.3,2.1-2.4c0,0,6.9-0.8,6.9-0.8c1.9-0.2,3.6,2.1,2.1,3.8C98.4,66.4,97.8,66.5,97.1,66.4z"/>
						</g>
						<path class="st11" d="M85.7,66.1l-6.3-0.5c-0.5,0-0.9-0.6-0.7-1.1l0,0c0.1-0.3,0.5-0.6,0.8-0.5l6.2,0.5c0.4,0,0.7,0.4,0.7,0.8
							l0,0C86.6,65.7,86.2,66.1,85.7,66.1z"/>
						<g>
							<polygon class="st14" points="89.5,67.2 88.9,66.9 91,62.7 91.8,62.6 							"/>
							<polygon class="st14" points="92.7,67 91.9,67.2 94,62.4 94.7,62.3 							"/>
						</g>
					</g>
				</g>
			</g>
			<g>
				<g>
					<path class="st8" d="M127.6,61.4c1-1.5,0.8-3.4-0.4-4.7l-2.9-2.9l2.8-5.3c0.3-0.6,0.2-1.4-0.4-1.9l-0.1-0.1
						c-0.3-0.2-0.6-0.2-0.8,0.1l-6.2,8.6l-0.1-0.1l-0.8-2.7c-0.2-0.6-0.6-0.9-1.2-1l-0.2,0c-0.4,0-0.7,0.3-0.7,0.7l0.5,3.7l0.1,2.7
						c0,0.4,0.1,0.7,0.3,1l-17.3,20.4c-6.1,6.7,3.4,14,10.8,9.6L127.6,61.4z"/>
					<g>
						<path class="st8" d="M124.8,53.4l0,0.1l-2.4,5.7c-0.2,0.5,0,1.2,0.5,1.5l0.3,0.2c0.2,0.1,0.5,0.1,0.6-0.2l2.6-5.3
							c0.2-0.5,0.1-1-0.4-1.3L124.8,53.4z"/>
						<path class="st9" d="M123.3,61.2c-0.1,0-0.3,0-0.4-0.1l-0.3-0.2c-0.6-0.4-0.9-1.2-0.6-1.8l2.6-6.1l1.5,0.9
							c0.5,0.3,0.7,1,0.5,1.6l-2.6,5.3c-0.1,0.2-0.2,0.3-0.4,0.4C123.5,61.2,123.4,61.2,123.3,61.2z M124.9,53.8l-2.3,5.4
							c-0.2,0.4,0,0.9,0.3,1.1l0.3,0.2c0,0,0.1,0,0.1,0c0,0,0,0,0.1-0.1l2.6-5.3c0.1-0.3,0-0.7-0.3-0.9L124.9,53.8z"/>
					</g>
					<g>
						<path class="st8" d="M126.6,54.9L126.6,54.9l-2.2,5.2c-0.2,0.5,0,1.1,0.4,1.3l0.3,0.2c0.2,0.1,0.4,0,0.5-0.1l2.4-4.8
							c0.2-0.4,0-0.9-0.3-1.1L126.6,54.9z"/>
						<path class="st9" d="M125.3,61.9c-0.1,0-0.2,0-0.3-0.1l-0.3-0.2c-0.6-0.4-0.8-1.1-0.5-1.7l2.3-5.5l1.4,0.9
							c0.5,0.3,0.7,1,0.4,1.5l-2.4,4.8c-0.1,0.2-0.2,0.3-0.4,0.3C125.4,61.9,125.3,61.9,125.3,61.9z M126.7,55.3l-2.1,4.9
							c-0.2,0.4,0,0.8,0.3,1l0.3,0.2l0.3,0.1l-0.3-0.1l2.4-4.8c0.1-0.3,0-0.6-0.2-0.8L126.7,55.3z"/>
					</g>
					<g>
						<path class="st8" d="M128,56L128,56l-2,4.7c-0.2,0.4,0,1,0.4,1.2l0.3,0.2c0.2,0.1,0.4,0,0.5-0.1l2.1-4.3c0.2-0.4,0-0.8-0.3-1
							L128,56z"/>
						<path class="st9" d="M126.9,62.4c-0.1,0-0.2,0-0.3-0.1l-0.3-0.2c-0.5-0.3-0.7-1-0.5-1.6l2.1-5l1.3,0.8
							c0.5,0.3,0.6,0.9,0.4,1.4l-2.1,4.3c-0.1,0.2-0.2,0.3-0.4,0.3C127,62.4,126.9,62.4,126.9,62.4z M128.2,56.4l-1.8,4.4
							c-0.1,0.3,0,0.7,0.3,0.9l0.3,0.2l2.2-4.3c0.1-0.2,0-0.5-0.2-0.7L128.2,56.4z"/>
					</g>
				</g>
				<path class="st5" d="M100.3,77.1l-5.9,6.5c-0.3-0.1-0.6-0.2-0.9-0.2l-10.1-2.1l-0.4-0.1c-2.2-0.6-4.4-0.6-6.4-0.1
					c-5-0.1-9.6,2.9-11.5,7.5l-3.7,8.9c-0.4,0.9,0.1,1.9,1,2.1l3.5,1.1l-5.4,27.7l38.3,4.5c1.2,0.3,0.5-5,0.2-6.2l1.8-20.7l12.4-17
					c0.3-0.4,0.2-1-0.1-1.3l-11.9-10.5C101,76.8,100.6,76.8,100.3,77.1z"/>
				<g>
					<g>
						<path class="st8" d="M80.1,139.3c-0.5-1.9-3-7-3-7c-0.5-0.8-1.1-1.5-1.7-2.2l0,0l-1-3.5l-2.2-13L76,104l-12.7-4.1l-2.8,7.1
							c-1.1,2.9-1.2,6-0.2,8.9l4.9,13.6l1,3.4l0.5,7.4c0,1.4,1.4,2.5,2,1.6c-0.3,1-0.2,2.3,1.1,2.5c0.7,0.2,1.1-0.2,1.3-0.8
							c-0.2,1-0.2,1.9,0.8,2.2c1.1,0.4,1.7-0.4,1.9-1.3c-0.1,0.7,0.1,1.3,0.9,1.5c2.3,0.3,2.2-2.7,2.3-4.5c0-0.9,0-1.6,0-2.4
							c0.6,0.6,1.3,1.1,2,1.4c0.3,0.1,0.5,0.2,0.8,0c0.2-0.1,0.3-0.3,0.3-0.5S80.2,139.5,80.1,139.3z"/>
						<path class="st16" d="M77.1,139l-0.3-4.1c0,0,1.5,4.3,1.4,5.1L77.1,139z"/>
					</g>
					<path class="st9" d="M73.8,145C73.8,145,73.8,145,73.8,145c-0.2-0.1-0.3-0.2-0.3-0.4c0.1-0.2,0.1-1.7,0.1-2.7
						c0-0.2,0.1-0.3,0.3-0.3c0,0,0,0,0,0c0.2,0,0.3,0.1,0.3,0.3c0,0.4,0,2.5-0.2,2.9C74.1,144.9,74,145,73.8,145z"/>
					<path class="st9" d="M71.1,144C71.1,144,71.1,144,71.1,144c-0.2,0-0.3-0.1-0.3-0.3l0.1-2.2c0-0.2,0.1-0.3,0.3-0.3c0,0,0,0,0,0
						c0.2,0,0.3,0.1,0.3,0.3l-0.1,2.2C71.3,143.9,71.2,144,71.1,144z"/>
					<path class="st9" d="M68.6,142.1C68.6,142.1,68.6,142.1,68.6,142.1c-0.2,0-0.3-0.1-0.3-0.3l0.1-1.2c0-0.2,0.2-0.3,0.3-0.3
						c0.2,0,0.3,0.1,0.3,0.3l-0.1,1.2C68.9,142,68.8,142.1,68.6,142.1z"/>
				</g>
				<path class="st7" d="M77.8,104.8c-0.2,0-0.4,0-0.7-0.1l-1.1-0.4c-0.2-0.1-0.2-0.2-0.2-0.4c0.1-0.2,0.2-0.2,0.4-0.2l1.1,0.4
					c0.7,0.2,1.5-0.1,1.8-0.7l3.5-7c0.1-0.1,0.2-0.2,0.4-0.1c0.1,0.1,0.2,0.2,0.1,0.4l-3.5,7C79.3,104.4,78.6,104.8,77.8,104.8z"/>
				<path class="st7" d="M100.1,114.3C100.1,114.3,100.1,114.3,100.1,114.3c-0.2,0-0.3-0.2-0.3-0.3l1.4-13.7c0-0.2,0.2-0.3,0.3-0.3
					c0.2,0,0.3,0.2,0.3,0.3l-1.4,13.7C100.3,114.2,100.2,114.3,100.1,114.3z"/>
			</g>
		</g>
		<g>
			<path class="st21" d="M107.4,118.7c2.6,2.1,5.2,4.2,7.7,6.5c2.5,2.3,4.8,4.7,6.9,7.4c1,1.3,2,2.8,2.8,4.4
				c0.4,0.8,0.7,1.7,0.8,2.6c0.1,0.5,0.1,1,0,1.5c-0.1,0.5-0.3,1.1-0.7,1.5c-0.4,0.5-0.8,0.8-1.3,1c-0.5,0.2-0.9,0.4-1.4,0.5
				c-0.9,0.2-1.9,0.2-2.7,0.2c-1.8-0.1-3.5-0.4-5.1-0.8c-3.3-0.8-6.5-2-9.7-3.3c-3.1-1.3-6.2-2.7-9.2-4.2c-6-3-11.8-6.5-17.5-10.1
				c-5.6-3.6-11.1-7.6-16.4-11.8c-2.6-2.1-5.2-4.3-7.7-6.6c-2.5-2.3-4.9-4.6-7.2-7.2c-1.1-1.3-2.2-2.6-3.3-3.9c-1-1.4-2-2.8-2.8-4.4
				c-0.4-0.8-0.8-1.6-1-2.5c-0.2-0.9-0.4-1.9-0.2-3c0.1-0.5,0.4-1.1,0.8-1.5c0.4-0.4,0.9-0.7,1.3-0.9c1-0.4,1.9-0.5,2.8-0.5
				c1.8,0,3.5,0.3,5.2,0.7c1.7,0.4,3.3,0.9,4.8,1.5c3.2,1.2,6.2,2.6,9.2,4.1c0.1,0.1,0.2,0.2,0.1,0.3c-0.1,0.1-0.2,0.1-0.3,0.1
				c-1.5-0.6-3.1-1.3-4.7-1.8c-1.6-0.6-3.1-1.1-4.7-1.6c-1.6-0.5-3.2-0.9-4.8-1.2c-1.6-0.3-3.2-0.5-4.8-0.4c-0.8,0-1.5,0.2-2.1,0.5
				c-0.6,0.3-0.9,0.7-1,1.2c-0.1,0.6,0,1.3,0.2,2c0.2,0.7,0.6,1.4,1,2.1c1.6,2.7,3.8,5.3,6,7.6c4.6,4.7,9.6,9.1,14.8,13.1
				c5.2,4.1,10.7,7.9,16.2,11.6c5.6,3.6,11.3,7,17.1,10.1c2.9,1.5,5.9,3,8.9,4.3c3,1.3,6.1,2.5,9.2,3.4c1.6,0.4,3.2,0.8,4.7,0.9
				c0.8,0.1,1.5,0,2.2-0.1c0.7-0.1,1.3-0.4,1.6-0.8c0.3-0.4,0.5-1,0.4-1.7c-0.1-0.7-0.3-1.4-0.6-2.2c-0.6-1.4-1.5-2.8-2.4-4.2
				c-1.9-2.7-4.1-5.2-6.4-7.6c-2.3-2.4-4.7-4.7-7.2-7c0,0,0-0.1,0-0.1C107.3,118.6,107.4,118.6,107.4,118.7z"/>
			<path class="st21" d="M101.9,107.1c1.9,0.4,3.9,0.9,5.8,1.4c1.9,0.5,3.9,1,5.8,1.6c3.8,1.2,7.6,2.5,11.3,4.2
				c1.8,0.9,3.6,1.8,5.4,3c0.9,0.6,1.7,1.2,2.5,2c0.8,0.8,1.6,1.6,2.1,2.9c0.1,0.3,0.2,0.6,0.3,1c0,0.4,0.1,0.7,0.1,1.1
				c0,0.4-0.1,0.7-0.2,1.1c-0.1,0.4-0.3,0.7-0.5,1c-0.8,1.2-1.8,1.9-2.8,2.4c-0.5,0.3-1,0.5-1.5,0.7c-0.5,0.2-1,0.4-1.5,0.6
				c-1,0.3-2,0.6-3,0.8c-4.1,0.9-8.1,1.2-12.2,1.4c-4,0.1-8.1,0.1-12.1-0.1c-8-0.4-16-1.3-23.9-2.5c-7.9-1.3-15.8-2.9-23.5-5
				c-3.9-1.1-7.7-2.3-11.5-3.6c-3.8-1.3-7.6-2.8-11.2-4.7c-1.8-0.9-3.6-1.9-5.4-3.1c-0.9-0.6-1.7-1.2-2.5-2
				c-0.8-0.7-1.6-1.6-2.2-2.6c-0.1-0.3-0.3-0.5-0.4-0.9c-0.1-0.3-0.3-0.6-0.3-1c-0.1-0.7-0.1-1.5,0.1-2.2c0.2-0.7,0.6-1.4,1.1-1.9
				c0.5-0.5,0.9-0.9,1.4-1.2c1-0.6,2-1,3-1.4c1-0.3,2-0.6,3-0.8c2-0.4,4.1-0.6,6.1-0.8c2-0.1,4-0.2,6-0.2c4,0,8,0.3,12,0.7
				c0.2,0,0.3,0.2,0.3,0.4c0,0.2-0.2,0.3-0.3,0.3c-4,0-7.9,0.1-11.9,0.4c-3.9,0.3-7.9,0.7-11.6,1.7c-1.8,0.5-3.7,1.1-5,2.1
				c-0.3,0.2-0.6,0.5-0.8,0.7c-0.2,0.3-0.3,0.5-0.4,0.7c0,0.1,0,0.2,0,0.3c0,0.1,0.1,0.2,0.1,0.4c0,0.1,0.1,0.3,0.2,0.4
				c0.1,0.1,0.2,0.3,0.3,0.4c0.4,0.6,1,1.2,1.7,1.8c0.7,0.6,1.4,1.1,2.2,1.6c1.6,1,3.3,1.9,5.1,2.7c7.1,3.2,14.6,5.5,22.2,7.5
				c7.6,2,15.4,3.5,23.1,4.8c7.8,1.3,15.6,2.2,23.5,2.8c3.9,0.3,7.9,0.4,11.8,0.4c3.9-0.1,7.8-0.2,11.6-0.9c0.9-0.2,1.9-0.4,2.7-0.6
				c0.5-0.1,0.9-0.3,1.3-0.4c0.4-0.2,0.8-0.3,1.2-0.5c0.8-0.4,1.4-0.8,1.7-1.3c0.1-0.2,0.3-0.4,0.3-0.7c0-0.1,0-0.2,0-0.4
				c0-0.1,0-0.3-0.1-0.4c-0.2-0.6-0.7-1.3-1.3-2c-0.6-0.6-1.3-1.2-2.1-1.8c-1.5-1.1-3.2-2.1-4.9-3.1c-3.4-1.9-7.1-3.4-10.8-4.9
				c-1.8-0.7-3.7-1.4-5.6-2.1c-1.9-0.7-3.8-1.3-5.6-1.9c-0.1,0-0.1-0.1-0.1-0.2C101.7,107.1,101.8,107.1,101.9,107.1z"/>
		</g>
	</g>
	<g>
		<g>
			
				<ellipse transform="matrix(0.2298 -0.9732 0.9732 0.2298 78.3214 163.1897)" class="st22" cx="142.3" cy="32.1" rx="23.5" ry="23.5"/>
			<path class="st23" d="M165.7,34c-0.5-0.6-1.1-1.1-1.7-1.6c0.3,0.8,0.5,1.7,0.5,2.6c0,4-3.3,7.3-7.3,7.3s-7.3-3.3-7.3-7.3
				c0-0.4,0-0.8,0.1-1.2c-1.6,1.8-2.6,4.2-2.6,6.9c0,5.2,3.8,9.5,8.8,10.3C161.5,47.1,165.1,41,165.7,34z"/>
			<path class="st23" d="M161.3,31c-0.1,0-0.2-0.1-0.2-0.1c-0.2-0.1-0.3-0.1-0.5-0.1c-0.1,0-0.3-0.1-0.4-0.1c-0.1,0-0.3-0.1-0.4-0.1
				c-0.2,0-0.4-0.1-0.6-0.1c-0.1,0-0.2,0-0.3,0c-0.3,0-0.6,0-1,0c-0.4,0-0.7,0-1.1,0.1c-0.1,0-0.2,0-0.3,0c-0.3,0-0.5,0.1-0.8,0.1
				c-0.1,0-0.2,0.1-0.3,0.1c-0.3,0.1-0.5,0.1-0.7,0.2c-0.1,0-0.2,0.1-0.3,0.1c-0.3,0.1-0.5,0.2-0.8,0.3c-0.1,0-0.1,0.1-0.2,0.1
				c-0.3,0.1-0.5,0.3-0.8,0.4c0,0-0.1,0.1-0.1,0.1c-0.3,0.2-0.5,0.3-0.8,0.5c0,0-0.1,0-0.1,0.1c-0.3,0.2-0.5,0.4-0.8,0.6
				c0,0,0,0,0,0c-0.3,0.2-0.5,0.5-0.7,0.8c0,0,0,0,0,0c-0.1,0.4-0.1,0.8-0.1,1.2c0,4,3.3,7.3,7.3,7.3s7.3-3.3,7.3-7.3
				c0-0.9-0.2-1.8-0.5-2.6c0,0,0,0,0,0C163.2,31.8,162.3,31.3,161.3,31z"/>
			<path class="st23" d="M161.3,31c-0.1,0-0.2-0.1-0.2-0.1c-0.2-0.1-0.3-0.1-0.5-0.1c-0.1,0-0.3-0.1-0.4-0.1c-0.1,0-0.3-0.1-0.4-0.1
				c-0.2,0-0.4-0.1-0.6-0.1c-0.1,0-0.2,0-0.3,0c-0.3,0-0.6,0-1,0c-0.4,0-0.7,0-1.1,0.1c-0.1,0-0.2,0-0.3,0c-0.3,0-0.5,0.1-0.8,0.1
				c-0.1,0-0.2,0.1-0.3,0.1c-0.3,0.1-0.5,0.1-0.7,0.2c-0.1,0-0.2,0.1-0.3,0.1c-0.3,0.1-0.5,0.2-0.8,0.3c-0.1,0-0.1,0.1-0.2,0.1
				c-0.3,0.1-0.5,0.3-0.8,0.4c0,0-0.1,0.1-0.1,0.1c-0.3,0.2-0.5,0.3-0.8,0.5c0,0-0.1,0-0.1,0.1c-0.3,0.2-0.5,0.4-0.8,0.6
				c0,0,0,0,0,0c-0.3,0.2-0.5,0.5-0.7,0.8c0,0,0,0,0,0c-0.1,0.4-0.1,0.8-0.1,1.2c0,4,3.3,7.3,7.3,7.3s7.3-3.3,7.3-7.3
				c0-0.9-0.2-1.8-0.5-2.6c0,0,0,0,0,0C163.2,31.8,162.3,31.3,161.3,31z"/>
			<path class="st23" d="M141.4,43c0-7-5.6-12.6-12.6-12.6c-3.9,0-7.5,1.8-9.8,4.7c1.1,8.9,7.2,16.3,15.4,19.2
				C138.5,52.2,141.4,47.9,141.4,43z"/>
			<g>
				
					<ellipse transform="matrix(0.2298 -0.9732 0.9732 0.2298 93.6736 148.7528)" class="st23" cx="140.8" cy="15.2" rx="5.3" ry="5.3"/>
				<path class="st23" d="M140.5,16c2,0,3.7-1.6,3.7-3.7c0-0.5-0.1-0.9-0.3-1.3c-0.9-0.6-2-1-3.1-1c-1.6,0-3,0.7-3.9,1.8
					c0,0.2-0.1,0.4-0.1,0.6C136.8,14.3,138.5,16,140.5,16z"/>
			</g>
			<path class="st5" d="M176.4,51.2c-0.9,0-1.7-0.1-2.5-0.2c-3.4-0.4-8-1.4-13.4-3.1c-0.2-0.1-0.7-0.2-0.6-0.3
				c1.9-2.2,2-2.9,2.1-2.8c10.8,3.3,15.2,3.1,16.2,2.7c-0.9-2.4-11.1-10.4-33.1-19.9c-21.9-9.5-34.8-11.5-37.1-10.5
				c0.4,1,3,4,11.5,9c0.2,0.1-0.4,0.5-0.6,3.5c0,0.2-0.4-0.1-0.6-0.2c-15.4-9.1-14-12.5-13.5-13.7c0.8-1.8,3.2-3.6,14.7-0.8
				c7.6,1.8,17.2,5.2,27.1,9.5c9.9,4.3,19,9,25.5,13.2c9.9,6.5,10.3,9.4,9.5,11.3C180.8,50.8,178.6,51.2,176.4,51.2z"/>
			<circle class="st23" cx="153.5" cy="17.3" r="2.1"/>
			<path class="st23" d="M128.9,25.7c0,0.8-0.6,1.4-1.4,1.4c-0.8,0-1.4-0.6-1.4-1.4s0.6-1.4,1.4-1.4C128.3,24.4,128.9,25,128.9,25.7
				z"/>
		</g>
		<g>
			<g>
				<defs>
					<path id="SVGID_9_" d="M36.6,35.3c-3.1,2.1-5,5.3-5.4,8.7c-0.1,0.6-0.1,1.1-0.1,1.7c0,1.8,0.4,3.6,1.1,5.3
						c0.3,0.6,0.6,1.2,1,1.7c0,0,0.1,0.1,0.1,0.1c3.9,5.8,11.8,7.3,17.5,3.4c2.5-1.7,4.1-4,5-6.7c0.2-0.6,0.3-1.2,0.4-1.8
						c0.3-1.8,0.2-3.7-0.3-5.5c-0.2-0.5-0.3-1-0.6-1.5c-0.3-0.7-0.7-1.4-1.1-2C50.3,32.9,42.4,31.4,36.6,35.3z"/>
				</defs>
				<clipPath id="SVGID_1_">
					<use xlink:href="#SVGID_9_"  style="overflow:visible;"/>
				</clipPath>
				<g class="st24">
					<path class="st5" d="M36.6,35.3c-3.1,2.1-5,5.3-5.4,8.7c-0.1,0.6-0.1,1.1-0.1,1.7c0,1.8,0.4,3.6,1.1,5.3c0.3,0.6,0.6,1.2,1,1.7
						c0,0,0.1,0.1,0.1,0.1c3.9,5.8,11.8,7.3,17.5,3.4c2.5-1.7,4.1-4,5-6.7c0.2-0.6,0.3-1.2,0.4-1.8c0.3-1.8,0.2-3.7-0.3-5.5
						c-0.2-0.5-0.3-1-0.6-1.5c-0.3-0.7-0.7-1.4-1.1-2C50.3,32.9,42.4,31.4,36.6,35.3z"/>
					<path class="st25" d="M45,53.9c-0.1-0.4-0.3-0.8-0.4-1.2c-0.2-0.5-0.5-1-0.8-1.5c-2.8-4.1-8.2-5.4-12.5-3
						c0.2,0.9,0.5,1.9,0.9,2.8c0.3,0.6,0.6,1.2,1,1.7c0,0,0.1,0.1,0.1,0.1c2.7,4.1,7.5,6,12,5.5c0-0.1,0-0.2,0.1-0.3
						C45.5,56.6,45.4,55.2,45,53.9z"/>
					<path class="st25" d="M42.7,35.9c-0.7,0.5-1.1,1.2-1.3,2c0,0.1,0,0.3,0,0.4c0,0.4,0.1,0.8,0.3,1.2c0.1,0.1,0.1,0.3,0.2,0.4
						c0,0,0,0,0,0c0.9,1.3,2.7,1.7,4,0.8c0.6-0.4,1-0.9,1.1-1.5c0-0.1,0.1-0.3,0.1-0.4c0.1-0.4,0-0.8-0.1-1.3c0-0.1-0.1-0.2-0.1-0.4
						c-0.1-0.2-0.2-0.3-0.3-0.5C45.8,35.3,44,35,42.7,35.9z"/>
					<path class="st25" d="M49.5,38.5c-0.3,0.2-0.5,0.5-0.5,0.9c0,0.1,0,0.1,0,0.2c0,0.2,0,0.4,0.1,0.5c0,0.1,0.1,0.1,0.1,0.2
						c0,0,0,0,0,0c0.4,0.6,1.2,0.7,1.8,0.3c0.2-0.2,0.4-0.4,0.5-0.7c0-0.1,0-0.1,0-0.2c0-0.2,0-0.4,0-0.6c0-0.1,0-0.1-0.1-0.2
						c0-0.1-0.1-0.1-0.1-0.2C50.8,38.3,50,38.1,49.5,38.5z"/>
					<path class="st25" d="M48.1,43.9c-0.1,0.1-0.2,0.2-0.2,0.3c0,0,0,0,0,0.1c0,0.1,0,0.1,0,0.2c0,0,0,0,0,0.1c0,0,0,0,0,0
						c0.1,0.2,0.4,0.2,0.6,0.1c0.1-0.1,0.1-0.1,0.2-0.2c0,0,0,0,0-0.1c0-0.1,0-0.1,0-0.2c0,0,0,0,0,0c0,0,0,0,0-0.1
						C48.5,43.8,48.3,43.8,48.1,43.9z"/>
					<g class="st26">
						<path class="st1" d="M31.2,43.9c-0.1,0-0.1,0.1-0.2,0.1c0.1,0,0.1,0,0.2,0C31.2,44,31.2,43.9,31.2,43.9z"/>
						<path class="st7" d="M44,46.3c-4.2,0-7.6-0.3-11.3-1.5l0,0c-0.1,0-0.4-0.1-0.8-0.3c-0.4-0.1-0.8-0.3-0.8-0.3l0.1-0.3L31,43.8
							c0.1-0.1,0.1-0.1,1.1,0.2c0.4,0.1,0.8,0.3,0.8,0.3l0,0c4.3,1.4,8.1,1.6,13.4,1.5c4.5-0.1,8.4-0.8,11.4-1.9
							c0.1-0.1,0.3,0,0.4,0.2c0.1,0.1,0,0.3-0.2,0.4c-3.1,1.2-7.1,1.9-11.6,2C45.5,46.3,44.7,46.3,44,46.3z"/>
						<path class="st7" d="M33.5,53c-0.2,0-0.3-0.1-0.3-0.3c0-0.3,0-0.3,1.1-0.3l0.5,0c3.3-0.1,6.5-0.8,11-2.1
							c3.8-1.1,7.3-2.4,10.1-3.9c0.1-0.1,0.3,0,0.4,0.1c0.1,0.1,0,0.3-0.1,0.4c-2.8,1.5-6.4,2.8-10.2,3.9c-4.5,1.3-7.8,2-11.1,2.1v0
							c-0.1,0-0.3,0-0.5,0C33.9,53,33.5,53,33.5,53C33.5,53,33.5,53,33.5,53z"/>
						<path class="st7" d="M37.3,57.4c-0.2,0-0.3-0.1-0.3-0.3c0-0.2,0.1-0.3,0.3-0.3c0.4,0,0.7,0,1.1-0.1c0.4,0,0.7-0.1,1.4-0.1
							c5.3-0.3,10.6-1.3,15.7-3c0.2-0.1,0.3,0,0.4,0.2c0.1,0.2,0,0.3-0.2,0.4c-5.2,1.7-10.5,2.7-15.8,3.1c-0.6,0-1,0.1-1.4,0.1
							C38.1,57.4,37.8,57.4,37.3,57.4C37.3,57.4,37.3,57.4,37.3,57.4z"/>
					</g>
				</g>
			</g>
		</g>
		<g>
			<g>
				<defs>
					<path id="SVGID_11_" d="M234.3,169.8c-2.1,1.4-3.4,3.6-3.7,5.9c-0.1,0.4-0.1,0.8-0.1,1.2c0,1.2,0.2,2.4,0.8,3.6
						c0.2,0.4,0.4,0.8,0.6,1.2c0,0,0,0.1,0.1,0.1c2.7,3.9,8,5,11.9,2.3c1.7-1.1,2.8-2.7,3.4-4.5c0.1-0.4,0.2-0.8,0.3-1.3
						c0.2-1.2,0.1-2.5-0.2-3.7c-0.1-0.4-0.2-0.7-0.4-1c-0.2-0.5-0.5-0.9-0.8-1.4C243.6,168.2,238.3,167.2,234.3,169.8z"/>
				</defs>
				<clipPath id="SVGID_2_">
					<use xlink:href="#SVGID_11_"  style="overflow:visible;"/>
				</clipPath>
				<g class="st27">
					<path class="st22" d="M234.3,169.8c-2.1,1.4-3.4,3.6-3.7,5.9c-0.1,0.4-0.1,0.8-0.1,1.2c0,1.2,0.2,2.4,0.8,3.6
						c0.2,0.4,0.4,0.8,0.6,1.2c0,0,0,0.1,0.1,0.1c2.7,3.9,8,5,11.9,2.3c1.7-1.1,2.8-2.7,3.4-4.5c0.1-0.4,0.2-0.8,0.3-1.3
						c0.2-1.2,0.1-2.5-0.2-3.7c-0.1-0.4-0.2-0.7-0.4-1c-0.2-0.5-0.5-0.9-0.8-1.4C243.6,168.2,238.3,167.2,234.3,169.8z"/>
					<path class="st25" d="M240.1,182.5c-0.1-0.3-0.2-0.5-0.3-0.8c-0.2-0.4-0.3-0.7-0.6-1c-1.9-2.8-5.6-3.6-8.5-2
						c0.1,0.6,0.3,1.3,0.6,1.9c0.2,0.4,0.4,0.8,0.6,1.2c0,0,0,0.1,0.1,0.1c1.9,2.8,5.1,4.1,8.2,3.7c0-0.1,0-0.1,0-0.2
						C240.4,184.3,240.3,183.4,240.1,182.5z"/>
					<path class="st25" d="M238.4,170.2c-0.5,0.3-0.8,0.8-0.9,1.4c0,0.1,0,0.2,0,0.3c0,0.3,0.1,0.6,0.2,0.8c0,0.1,0.1,0.2,0.1,0.3
						c0,0,0,0,0,0c0.6,0.9,1.8,1.1,2.7,0.5c0.4-0.3,0.6-0.6,0.8-1c0-0.1,0.1-0.2,0.1-0.3c0-0.3,0-0.6-0.1-0.9c0-0.1-0.1-0.2-0.1-0.2
						c0-0.1-0.1-0.2-0.2-0.3C240.6,169.8,239.4,169.6,238.4,170.2z"/>
					<path class="st25" d="M243.1,172c-0.2,0.1-0.3,0.4-0.4,0.6c0,0,0,0.1,0,0.1c0,0.1,0,0.2,0.1,0.4c0,0,0,0.1,0.1,0.1c0,0,0,0,0,0
						c0.3,0.4,0.8,0.5,1.2,0.2c0.2-0.1,0.3-0.3,0.3-0.5c0,0,0-0.1,0-0.1c0-0.1,0-0.3,0-0.4c0,0,0-0.1,0-0.1c0,0,0-0.1-0.1-0.1
						C244,171.8,243.4,171.7,243.1,172z"/>
					<path class="st25" d="M242.1,175.7c-0.1,0-0.1,0.1-0.1,0.2c0,0,0,0,0,0c0,0,0,0.1,0,0.1c0,0,0,0,0,0c0,0,0,0,0,0
						c0.1,0.1,0.3,0.2,0.4,0.1c0.1,0,0.1-0.1,0.1-0.1c0,0,0,0,0,0c0,0,0-0.1,0-0.1c0,0,0,0,0,0c0,0,0,0,0,0
						C242.4,175.6,242.2,175.6,242.1,175.7z"/>
					<g class="st26">
						<path class="st1" d="M230.7,175.7c0,0-0.1,0.1-0.1,0.1C230.6,175.7,230.6,175.7,230.7,175.7
							C230.6,175.7,230.7,175.7,230.7,175.7z"/>
						<path class="st7" d="M239.4,177.4c-2.9,0-5.2-0.2-7.7-1l0,0c-0.1,0-0.3-0.1-0.6-0.2l-0.5-0.2l0.1-0.3l-0.2-0.2
							c0.1-0.2,0.1-0.2,0.8,0c0.3,0.1,0.6,0.2,0.6,0.2h0c2.9,0.9,5.5,1.1,9,1c3-0.1,5.7-0.5,7.7-1.3c0.1-0.1,0.3,0,0.4,0.2
							c0.1,0.1,0,0.3-0.2,0.4c-2.1,0.8-4.8,1.3-7.9,1.3C240.4,177.4,239.8,177.4,239.4,177.4z"/>
						<path class="st7" d="M232.2,182c-0.2,0-0.3-0.1-0.3-0.3c0-0.3,0-0.3,1.1-0.3c2.2,0,4.4-0.5,7.4-1.4c2.6-0.7,5-1.6,6.9-2.6
							c0.1-0.1,0.3,0,0.4,0.1c0.1,0.1,0,0.3-0.1,0.4c-1.9,1-4.4,1.9-7,2.7c-3.1,0.9-5.3,1.4-7.6,1.4C233,182,232.3,182,232.2,182
							C232.2,182,232.2,182,232.2,182z"/>
						<path class="st7" d="M234.8,184.9c-0.2,0-0.3-0.1-0.3-0.3c0-0.2,0.1-0.3,0.3-0.3c0.3,0,0.5,0,0.7-0.1c0.2,0,0.5,0,0.9-0.1
							c3.6-0.2,7.2-0.9,10.6-2.1c0.2-0.1,0.3,0,0.4,0.2c0.1,0.2,0,0.3-0.2,0.4c-3.5,1.2-7.1,1.9-10.8,2.1c-0.4,0-0.7,0.1-0.9,0.1
							C235.3,184.9,235.1,184.9,234.8,184.9C234.8,184.9,234.8,184.9,234.8,184.9z"/>
					</g>
				</g>
			</g>
		</g>
		<g>
			<g>
				<defs>
					<path id="SVGID_13_" d="M234.4,64.1c-4.5,0.4-8.3,2.6-10.9,6c-0.4,0.5-0.8,1.1-1.1,1.7c-1.1,1.9-1.7,4-1.9,6.2
						c-0.1,0.8-0.1,1.6,0,2.4c0,0.1,0,0.1,0,0.2c0.7,8.4,8.1,14.6,16.5,13.9c3.6-0.3,6.8-1.8,9.2-4.1c0.6-0.5,1.1-1.1,1.5-1.7
						c1.4-1.7,2.4-3.8,2.9-6c0.1-0.6,0.3-1.3,0.3-1.9c0.1-0.9,0.1-1.8,0-2.8C250.2,69.6,242.8,63.4,234.4,64.1z"/>
				</defs>
				<clipPath id="SVGID_3_">
					<use xlink:href="#SVGID_13_"  style="overflow:visible;"/>
				</clipPath>
				<g class="st28">
					<path class="st5" d="M234.4,64.1c-4.5,0.4-8.3,2.6-10.9,6c-0.4,0.5-0.8,1.1-1.1,1.7c-1.1,1.9-1.7,4-1.9,6.2
						c-0.1,0.8-0.1,1.6,0,2.4c0,0.1,0,0.1,0,0.2c0.7,8.4,8.1,14.6,16.5,13.9c3.6-0.3,6.8-1.8,9.2-4.1c0.6-0.5,1.1-1.1,1.5-1.7
						c1.4-1.7,2.4-3.8,2.9-6c0.1-0.6,0.3-1.3,0.3-1.9c0.1-0.9,0.1-1.8,0-2.8C250.2,69.6,242.8,63.4,234.4,64.1z"/>
					<path class="st25" d="M232.3,88.7c0.1-0.5,0.2-1,0.2-1.5c0.1-0.7,0.1-1.4,0-2.1c-0.5-6-5.5-10.5-11.4-10.5
						c-0.4,1.1-0.6,2.3-0.7,3.4c-0.1,0.8-0.1,1.6,0,2.4c0,0.1,0,0.1,0,0.2c0.5,5.9,4.3,10.7,9.4,12.9c0.1-0.1,0.2-0.2,0.2-0.3
						C231.2,91.9,231.9,90.3,232.3,88.7z"/>
					<path class="st25" d="M240.4,68.3c-1,0.1-1.9,0.6-2.5,1.4c-0.1,0.1-0.2,0.3-0.3,0.4c-0.2,0.4-0.4,0.9-0.4,1.4
						c0,0.2,0,0.4,0,0.5c0,0,0,0,0,0c0.2,1.9,1.9,3.4,3.8,3.2c0.8-0.1,1.6-0.4,2.1-0.9c0.1-0.1,0.2-0.3,0.4-0.4
						c0.3-0.4,0.5-0.9,0.7-1.4c0-0.1,0.1-0.3,0.1-0.4c0-0.2,0-0.4,0-0.6C244.1,69.6,242.4,68.1,240.4,68.3z"/>
					<path class="st25" d="M246,75.1c-0.5,0-0.8,0.3-1.1,0.6c0,0.1-0.1,0.1-0.1,0.2c-0.1,0.2-0.2,0.4-0.2,0.6c0,0.1,0,0.2,0,0.2
						c0,0,0,0,0,0c0.1,0.8,0.8,1.5,1.7,1.4c0.4,0,0.7-0.2,0.9-0.4c0.1-0.1,0.1-0.1,0.2-0.2c0.1-0.2,0.2-0.4,0.3-0.6
						c0-0.1,0-0.1,0-0.2c0-0.1,0-0.2,0-0.3C247.6,75.6,246.9,75,246,75.1z"/>
					<path class="st25" d="M241.4,80c-0.1,0-0.3,0.1-0.3,0.2c0,0,0,0,0,0.1c0,0.1-0.1,0.1-0.1,0.2c0,0,0,0,0,0.1c0,0,0,0,0,0
						c0,0.3,0.3,0.5,0.5,0.4c0.1,0,0.2-0.1,0.3-0.1c0,0,0,0,0-0.1c0-0.1,0.1-0.1,0.1-0.2c0,0,0,0,0-0.1c0,0,0-0.1,0-0.1
						C241.9,80.1,241.7,79.9,241.4,80z"/>
					<g class="st26">
						<path class="st1" d="M223.6,70c-0.1,0-0.2,0-0.3,0c0.1,0,0.1,0.1,0.2,0.1C223.6,70,223.6,70,223.6,70z"/>
						<path class="st7" d="M251.5,86.1C251.5,86.1,251.5,86.1,251.5,86.1c-4-0.6-8.6-2.2-13.4-4.8c-5.6-3-9.6-5.5-13.4-9.6l0,0
							c-0.1-0.1-0.3-0.3-0.6-0.6c-0.4-0.4-0.8-0.9-0.8-0.9l0.2-0.2l0-0.3c0.1,0,0.1,0,1.1,1c0.3,0.3,0.5,0.6,0.5,0.6
							c3.7,4,7.7,6.5,13.2,9.4c4.8,2.5,9.3,4.2,13.2,4.7c0.2,0,0.3,0.2,0.2,0.3C251.8,86,251.7,86.1,251.5,86.1z"/>
						<path class="st7" d="M248,88C248,88,248,88,248,88c-3.9-0.1-8.4-0.8-13.1-1.9c-5.5-1.3-9.4-2.5-13-4.4l0,0
							c-0.1,0-0.3-0.1-0.6-0.3c-0.3-0.2-0.7-0.4-0.7-0.4c0,0-0.1,0-0.1-0.1c-0.1-0.1-0.1-0.3,0-0.4c0.2-0.2,0.2-0.2,1.1,0.4l0.5,0.3
							c3.5,1.9,7.4,3,12.8,4.3c4.7,1.1,9.2,1.8,13,1.9c0.2,0,0.3,0.1,0.3,0.3C248.3,87.8,248.2,88,248,88z"/>
						<path class="st7" d="M243.3,95.1C243.3,95.1,243.3,95.1,243.3,95.1c-6.5-1.3-12.7-3.3-18.5-6.1c-0.7-0.3-1.1-0.5-1.5-0.7
							c-0.4-0.2-0.7-0.3-1.2-0.6c-0.1-0.1-0.2-0.2-0.1-0.4c0.1-0.1,0.2-0.2,0.4-0.1c0.5,0.2,0.8,0.4,1.2,0.5
							c0.4,0.2,0.8,0.4,1.5,0.7c5.8,2.8,11.9,4.8,18.3,6.1c0.2,0,0.3,0.2,0.2,0.3C243.6,95.1,243.4,95.1,243.3,95.1z"/>
					</g>
				</g>
			</g>
		</g>
		<g>
			<g>
				<defs>
					<path id="SVGID_15_" d="M12,191.1c-1.1,1.5-1.4,3.3-1,4.9c0.1,0.3,0.1,0.5,0.2,0.8c0.3,0.8,0.8,1.6,1.4,2.2
						c0.2,0.2,0.5,0.4,0.7,0.6c0,0,0,0,0.1,0c2.8,2,6.7,1.4,8.7-1.4c0.8-1.2,1.2-2.6,1.2-3.9c0-0.3-0.1-0.6-0.1-0.9
						c-0.2-0.9-0.5-1.7-1.1-2.5c-0.2-0.2-0.3-0.4-0.5-0.6c-0.3-0.3-0.5-0.5-0.9-0.7C17.8,187.6,14,188.3,12,191.1z"/>
				</defs>
				<clipPath id="SVGID_4_">
					<use xlink:href="#SVGID_15_"  style="overflow:visible;"/>
				</clipPath>
				<g class="st29">
					<path class="st5" d="M12,191.1c-1.1,1.5-1.4,3.3-1,4.9c0.1,0.3,0.1,0.5,0.2,0.8c0.3,0.8,0.8,1.6,1.4,2.2
						c0.2,0.2,0.5,0.4,0.7,0.6c0,0,0,0,0.1,0c2.8,2,6.7,1.4,8.7-1.4c0.8-1.2,1.2-2.6,1.2-3.9c0-0.3-0.1-0.6-0.1-0.9
						c-0.2-0.9-0.5-1.7-1.1-2.5c-0.2-0.2-0.3-0.4-0.5-0.6c-0.3-0.3-0.5-0.5-0.9-0.7C17.8,187.6,14,188.3,12,191.1z"/>
					<path class="st25" d="M19,198.2c-0.1-0.2-0.2-0.3-0.4-0.5c-0.2-0.2-0.4-0.4-0.6-0.6c-2-1.4-4.7-1.1-6.3,0.7
						c0.2,0.4,0.5,0.8,0.9,1.1c0.2,0.2,0.5,0.4,0.7,0.6c0,0,0,0,0.1,0c2,1.4,4.5,1.5,6.5,0.5c0,0,0-0.1,0-0.1
						C19.7,199.4,19.4,198.7,19,198.2z"/>
					<path class="st25" d="M14.9,190.3c-0.2,0.3-0.3,0.8-0.2,1.1c0,0.1,0,0.1,0.1,0.2c0.1,0.2,0.2,0.4,0.3,0.5
						c0.1,0.1,0.1,0.1,0.2,0.1c0,0,0,0,0,0c0.6,0.5,1.5,0.3,2-0.3c0.2-0.3,0.3-0.6,0.3-0.9c0-0.1,0-0.1,0-0.2c0-0.2-0.1-0.4-0.3-0.6
						c0,0-0.1-0.1-0.1-0.1c-0.1-0.1-0.1-0.1-0.2-0.2C16.2,189.5,15.3,189.7,14.9,190.3z"/>
					<path class="st25" d="M18.4,190.4c-0.1,0.1-0.1,0.3-0.1,0.5c0,0,0,0.1,0,0.1c0,0.1,0.1,0.2,0.1,0.2c0,0,0,0,0.1,0.1
						c0,0,0,0,0,0c0.3,0.2,0.7,0.1,0.9-0.1c0.1-0.1,0.1-0.3,0.1-0.4c0,0,0-0.1,0-0.1c0-0.1-0.1-0.2-0.1-0.2c0,0,0,0-0.1-0.1
						c0,0-0.1-0.1-0.1-0.1C19,190,18.6,190.1,18.4,190.4z"/>
					<path class="st25" d="M18.7,193.1c0,0,0,0.1,0,0.2c0,0,0,0,0,0c0,0,0,0.1,0,0.1c0,0,0,0,0,0c0,0,0,0,0,0c0.1,0.1,0.2,0,0.3,0
						c0,0,0-0.1,0-0.1c0,0,0,0,0,0c0,0,0-0.1,0-0.1c0,0,0,0,0,0c0,0,0,0,0,0C18.9,193,18.8,193,18.7,193.1z"/>
					<g class="st26">
						<path class="st1" d="M10.9,195.9C10.9,196,10.9,196,10.9,195.9C10.9,196,10.9,196,10.9,195.9C11,196,10.9,196,10.9,195.9z"/>
						<path class="st7" d="M11,196.3c-0.1,0-0.1,0-0.2-0.1c-0.1-0.1-0.1-0.1-0.1-0.2c0-0.3,0.1-0.3,0.7-0.3l0.4,0
							c2.2-0.1,3.9-0.6,6.3-1.6c2-0.8,3.7-1.8,4.9-2.8c0.1-0.1,0.3-0.1,0.4,0s0.1,0.3,0,0.4c-1.2,1.1-3,2.1-5.1,2.9
							c-2.4,1-4.3,1.5-6.5,1.6v0c-0.1,0-0.2,0-0.4,0L11,196.3C11,196.3,11,196.3,11,196.3z"/>
						<path class="st7" d="M13.5,199.9c-0.2,0-0.3-0.1-0.3-0.3c0-0.2,0-0.2,0.6-0.4l0.2-0.1c1.5-0.6,2.9-1.5,4.7-2.8
							c1.6-1.1,2.9-2.3,4-3.5c0.1-0.1,0.3-0.1,0.4,0c0.1,0.1,0.1,0.3,0,0.4c-1.1,1.2-2.5,2.4-4.1,3.6c-1.9,1.4-3.3,2.3-4.8,2.9l0,0
							c-0.1,0-0.1,0-0.2,0.1l-0.4,0.1C13.6,199.9,13.5,199.9,13.5,199.9z"/>
						<path class="st7" d="M16,201.3c-0.1,0-0.2-0.1-0.3-0.2c-0.1-0.1,0-0.3,0.2-0.4c0.2-0.1,0.3-0.1,0.5-0.2
							c0.2-0.1,0.3-0.2,0.6-0.3c2.4-1,4.6-2.4,6.7-4c0.1-0.1,0.3-0.1,0.4,0c0.1,0.1,0.1,0.3,0,0.4c-2.1,1.7-4.4,3.1-6.8,4.1
							c-0.3,0.1-0.5,0.2-0.6,0.3c-0.2,0.1-0.3,0.1-0.5,0.2C16.1,201.3,16,201.3,16,201.3z"/>
					</g>
				</g>
			</g>
		</g>
		<polygon class="st22" points="17.1,62.3 19.9,63.6 17.2,65.4 15.7,68.3 14.1,65.6 11.2,64.3 14,62.5 15.4,59.6 		"/>
		<polygon class="st7" points="155.2,81.6 161.1,84.3 155.4,88 152.5,94 149.1,88.5 143.2,85.8 148.9,82.1 151.8,76.1 		"/>
		<polygon class="st22" points="221.9,28.9 224.8,30.2 222,31.9 220.6,34.9 219,32.2 216.1,30.9 218.8,29.1 220.3,26.2 		"/>
		<polygon class="st7" points="120.1,171.2 123,172.5 120.3,174.2 118.8,177.2 117.2,174.5 114.3,173.2 117.1,171.4 118.5,168.5 		
			"/>
		<polygon class="st1" points="260.7,136.8 263.5,138.1 260.8,139.9 259.4,142.8 257.7,140.2 254.8,138.8 257.6,137.1 259,134.1 		
			"/>
		<polygon class="st22" points="242.1,221.7 244.9,223 242.2,224.8 240.8,227.7 239.1,225 236.3,223.7 239,222 240.4,219 		"/>
		<g>
			<g>
				
					<ellipse transform="matrix(0.9732 -0.2298 0.2298 0.9732 -43.5931 30.8689)" class="st5" cx="110.8" cy="202.6" rx="12.6" ry="12.6"/>
				<path class="st30" d="M98.2,203.6c0.3-0.3,0.6-0.6,0.9-0.8c-0.2,0.4-0.3,0.9-0.3,1.4c0,2.2,1.7,3.9,3.9,3.9
					c2.2,0,3.9-1.7,3.9-3.9c0-0.2,0-0.4-0.1-0.6c0.9,1,1.4,2.3,1.4,3.7c0,2.8-2,5.1-4.7,5.5C100.4,210.7,98.5,207.4,98.2,203.6z"/>
				<path class="st31" d="M100.5,202c0,0,0.1,0,0.1,0c0.1,0,0.2-0.1,0.3-0.1c0.1,0,0.2,0,0.2-0.1c0.1,0,0.2,0,0.2,0
					c0.1,0,0.2,0,0.3,0c0.1,0,0.1,0,0.2,0c0.2,0,0.3,0,0.5,0c0.2,0,0.4,0,0.6,0c0.1,0,0.1,0,0.2,0c0.1,0,0.3,0,0.4,0.1
					c0.1,0,0.1,0,0.2,0c0.1,0,0.3,0.1,0.4,0.1c0,0,0.1,0,0.1,0.1c0.1,0,0.3,0.1,0.4,0.2c0,0,0.1,0,0.1,0.1c0.1,0.1,0.3,0.1,0.4,0.2
					c0,0,0.1,0,0.1,0c0.1,0.1,0.3,0.2,0.4,0.3c0,0,0,0,0,0c0.1,0.1,0.3,0.2,0.4,0.3c0,0,0,0,0,0c0.1,0.1,0.3,0.3,0.4,0.4
					c0,0,0,0,0,0c0,0.2,0.1,0.4,0.1,0.6c0,2.2-1.7,3.9-3.9,3.9c-2.2,0-3.9-1.7-3.9-3.9c0-0.5,0.1-1,0.3-1.4c0,0,0,0,0,0
					C99.5,202.5,100,202.2,100.5,202z"/>
				<path class="st32" d="M111.2,208.5c0-3.7,3-6.8,6.8-6.8c2.1,0,4,1,5.3,2.5c-0.6,4.8-3.9,8.8-8.3,10.3
					C112.8,213.4,111.2,211.1,111.2,208.5z"/>
				<g class="st33">
					<path class="st34" d="M108.7,193.5c0,1.6,1.3,2.8,2.8,2.8c1.6,0,2.8-1.3,2.8-2.8c0-1.6-1.3-2.8-2.8-2.8
						C110,190.7,108.7,192,108.7,193.5z"/>
					<path class="st34" d="M111.7,194c-1.1,0-2-0.9-2-2c0-0.3,0-0.5,0.1-0.7c0.5-0.3,1-0.6,1.7-0.6c0.8,0,1.6,0.4,2.1,1
						c0,0.1,0,0.2,0,0.3C113.7,193.1,112.8,194,111.7,194z"/>
				</g>
				<path class="st32" d="M103.6,194.7c0,0.6,0.5,1.1,1.1,1.1c0.6,0,1.1-0.5,1.1-1.1c0-0.6-0.5-1.1-1.1-1.1
					C104.1,193.5,103.6,194.1,103.6,194.7z"/>
				<path class="st32" d="M117.9,199.2c0,0.4,0.3,0.7,0.7,0.7c0.4,0,0.7-0.3,0.7-0.7c0-0.4-0.3-0.7-0.7-0.7
					C118.3,198.5,117.9,198.8,117.9,199.2z"/>
			</g>
			<path class="st22" d="M92.4,213.4c-2.2,0-2.9-0.7-3.2-1.5c-0.8-1.8,0.8-3.8,5.3-6.7c3.5-2.3,8.4-4.8,13.8-7.2
				c5.4-2.3,10.6-4.1,14.6-5.1c5.2-1.3,7.7-1.1,8.5,0.7c0.6,1.4,0.3,3.3-6.7,7.6l-1.3,0.9l-0.6-3.1l0.3-0.2c3.1-1.9,4.4-3.1,5-3.7
				c0,0,0,0,0,0c-2.3,0-8.9,1.5-18.8,5.7c-9.9,4.3-15.5,8.1-17,9.8c0.9,0,2.9-0.2,6.6-1.2l0.9-0.3l1.9,2.4l-2,0.6
				C96.3,213,94,213.4,92.4,213.4z"/>
			<path class="st14" d="M99.2,207.6l0-0.3l-0.3-0.1c0.1-0.2,0.1-0.2,0.8-0.2c0.4,0,0.9-0.1,1-0.1l0,0c4.2-0.5,7.5-1.8,11.9-3.9
				c3.8-1.8,6.9-3.9,9-6c0.1-0.1,0.3-0.1,0.4,0c0.1,0.1,0.1,0.3,0,0.4c-2.2,2.2-5.3,4.3-9.1,6.1c-4.5,2.1-7.9,3.5-12.1,3.9l0,0
				c-0.2,0-0.4,0.1-1,0.1C99.5,207.5,99.3,207.6,99.2,207.6z"/>
			<path class="st14" d="M101.9,213.5c-0.2,0-0.3-0.1-0.3-0.3c0-0.2,0-0.2,0.9-0.5c0.4-0.1,0.8-0.2,0.8-0.2l0,0
				c4-1.1,7.2-2.8,11.3-5.6c3.5-2.3,6.3-4.8,8-7.2c0.1-0.1,0.3-0.2,0.4-0.1c0.1,0.1,0.2,0.3,0.1,0.4c-1.8,2.5-4.6,5-8.2,7.4
				c-4.1,2.7-7.3,4.5-11.4,5.6l0,0c-0.1,0-0.4,0.1-0.8,0.2C102.4,213.4,102.1,213.5,101.9,213.5C102,213.5,102,213.5,101.9,213.5z"
				/>
		</g>
		<g>
			<path class="st7" d="M197.9,48.9c0,0.5-0.4,0.9-0.9,0.9c-0.5,0-0.9-0.4-0.9-0.9c0-0.5,0.4-0.9,0.9-0.9
				C197.5,48,197.9,48.4,197.9,48.9z"/>
			<path class="st7" d="M243.1,119.1c0,0.5-0.4,0.9-0.9,0.9c-0.5,0-0.9-0.4-0.9-0.9c0-0.5,0.4-0.9,0.9-0.9
				C242.7,118.2,243.1,118.6,243.1,119.1z"/>
			<path class="st22" d="M79.1,194.7c0,0.5-0.4,0.9-0.9,0.9c-0.5,0-0.9-0.4-0.9-0.9c0-0.5,0.4-0.9,0.9-0.9
				C78.8,193.8,79.1,194.2,79.1,194.7z"/>
			<circle class="st22" cx="15.6" cy="240.7" r="0.9"/>
			<path class="st7" d="M27.6,141.7c0,0.5-0.4,0.9-0.9,0.9c-0.5,0-0.9-0.4-0.9-0.9c0-0.5,0.4-0.9,0.9-0.9
				C27.3,140.8,27.6,141.2,27.6,141.7z"/>
			<path class="st1" d="M120.1,85.3c0,0.5-0.4,0.9-0.9,0.9c-0.5,0-0.9-0.4-0.9-0.9c0-0.5,0.4-0.9,0.9-0.9
				C119.7,84.4,120.1,84.8,120.1,85.3z"/>
			<path class="st1" d="M124.7,2.4c0,1.4-1.1,2.5-2.5,2.5s-2.5-1.1-2.5-2.5c0-1.4,1.1-2.5,2.5-2.5S124.7,1,124.7,2.4z"/>
			<path class="st1" d="M95.3,223.7c0,1.4-1.1,2.5-2.5,2.5c-1.4,0-2.5-1.1-2.5-2.5c0-1.4,1.1-2.5,2.5-2.5
				C94.2,221.2,95.3,222.3,95.3,223.7z"/>
			<path class="st1" d="M260.4,95.7c0,1.4-1.1,2.5-2.5,2.5s-2.5-1.1-2.5-2.5c0-1.4,1.1-2.5,2.5-2.5S260.4,94.3,260.4,95.7z"/>
			<path class="st1" d="M148.8,180.7c0,0.5-0.4,0.9-0.9,0.9c-0.5,0-0.9-0.4-0.9-0.9c0-0.5,0.4-0.9,0.9-0.9
				C148.4,179.8,148.8,180.2,148.8,180.7z"/>
			<circle class="st22" cx="113.5" cy="253.3" r="0.9"/>
			<path class="st5" d="M191.2,1.5c0,0.5-0.4,0.9-0.9,0.9c-0.5,0-0.9-0.4-0.9-0.9s0.4-0.9,0.9-0.9C190.8,0.7,191.2,1.1,191.2,1.5z"
				/>
			<path class="st5" d="M128.4,100.5c0,0.5-0.4,0.9-0.9,0.9c-0.5,0-0.9-0.4-0.9-0.9c0-0.5,0.4-0.9,0.9-0.9
				C128,99.6,128.4,100,128.4,100.5z"/>
			<path class="st5" d="M166.5,69.1c0,0.5-0.4,0.9-0.9,0.9c-0.5,0-0.9-0.4-0.9-0.9c0-0.5,0.4-0.9,0.9-0.9
				C166.2,68.2,166.5,68.6,166.5,69.1z"/>
			<path class="st5" d="M5.1,93.4c0,0.5-0.4,0.9-0.9,0.9c-0.5,0-0.9-0.4-0.9-0.9c0-0.5,0.4-0.9,0.9-0.9C4.7,92.5,5.1,92.9,5.1,93.4z
				"/>
		</g>
	</g>
</g>
</svg>
